<svg id="Layer_1" data-name="Layer 1" xmlns="http://www.w3.org/2000/svg" viewBox="0 0 160 160"><defs><style>.cls-1{fill:none;stroke:#2e368e;stroke-linecap:round;stroke-miterlimit:10;stroke-width:7px;}.cls-2{fill:#8bc53f;}.cls-3{fill:#fff;}.cls-4{fill:#2b388f;}.cls-5{fill:#2e368e;}.cls-6{fill:#e6af22;}</style></defs><circle class="cls-1" cx="80" cy="80" r="71.86"/><path class="cls-2" d="M118,93.19c.18-2.33,3.66-21.48-12.62-36.31C93.1,45.65,80.72,46.45,76.85,46.74c-5.64.42-16,2.27-25.8,13.37C38,74.92,41.8,90.64,42.09,93.43H27c-.36-3.49-2.48-27.86,13.87-46.36C53.09,33.19,69,31.09,76.06,30.56c4.84-.37,22.86-1.06,38.7,12.47,21.66,18.48,18.67,47.19,18.45,50.1Z"/><path class="cls-3" d="M30.25,82.47l-1.3,0A26.49,26.49,0,0,0,29,86.79l.33,4.35L30.66,91l-.31-4.24A24.15,24.15,0,0,1,30.25,82.47Zm7.91.16A9.64,9.64,0,0,0,36.08,86c-.79-1.77-1.71-2.72-3.07-2.75a2.29,2.29,0,0,0-2.08,1.21A4.67,4.67,0,0,0,31,88.93a1.66,1.66,0,0,0,1.71.91,1.56,1.56,0,0,0,1.12-.64,1.94,1.94,0,0,0,.37-1.27l-1.26-.79c0,.68-.1,1-.37,1-.48,0-.75-.42-.82-1.39A2.22,2.22,0,0,1,32,85.44a1.29,1.29,0,0,1,1.14-.62c.61,0,1.1.45,1.48,1.35a6.12,6.12,0,0,1,.5,2c0,.25,0,.74,0,1.49L37,88.88A7.35,7.35,0,0,1,37.56,86a7.66,7.66,0,0,1,1.51-2.55Z"/><path class="cls-3" d="M30.42,79.25l-1.29-.13-.22,4.18,1.3,0L30.28,82l7.75.33L38.09,81l-7.73-.57Z"/><path class="cls-3" d="M32.28,70.16,31,69.79c-.42,1.67-1,3.32-1.25,5s-.62,3.4-.71,5.11l1.3.11a34.94,34.94,0,0,1,.48-3.68,23.75,23.75,0,0,1,.75-3.64,19.46,19.46,0,0,0,.55,3.55,12.78,12.78,0,0,0,1.13,3.34l1.53-.24a7.47,7.47,0,0,1,1.62-3.07,5.5,5.5,0,0,1,2.77-2l.28-1.08-7.49-2ZM37,74a9.53,9.53,0,0,0-3,3.26c-.26-.87-.48-1.67-.65-2.37s-.18-1.29-.23-1.79Z"/><path class="cls-3" d="M35.7,62l-1.16-.58a49.14,49.14,0,0,0-3.74,9.3l1.26.35a24.45,24.45,0,0,1,1.14-3.45,28.91,28.91,0,0,1,1.38-3.36,18,18,0,0,0,0,3.87,12.43,12.43,0,0,0,.52,3.07l1.54,0a6.86,6.86,0,0,1,2.13-2.66,5.23,5.23,0,0,1,3-1.38l.51-1-7-3.34Zm4.9,6.35a5,5,0,0,0-2,1.24l.92.92a5.51,5.51,0,0,1,1.67-1.07Zm-.91-1.89A8.94,8.94,0,0,0,36.27,69a13.46,13.46,0,0,1-.17-4.17Z"/><path class="cls-3" d="M40.25,62.17A2.14,2.14,0,0,0,38,60.78a1.48,1.48,0,0,0-1.09.79,2.63,2.63,0,0,0-.25,1.54l1.41.11a1.65,1.65,0,0,1,0-.9.41.41,0,0,1,.63-.21c.37.2.43.53.2,1a2,2,0,0,1-.76.78c-.26.16-.75.39-1.46.73a6.55,6.55,0,0,0,1.74.44,3.24,3.24,0,0,0,1-.61,2.86,2.86,0,0,0,.75-.87A1.92,1.92,0,0,0,40.25,62.17ZM37.39,59l-1.1-.65-1.26,2L34,62.54l1.16.55,1-2.1Z"/><path class="cls-3" d="M43.94,50.65,43,49.78a42.27,42.27,0,0,0-3.83,4.42c-.58.78-1.21,1.53-1.75,2.34L35.87,59l1.13.64a48.42,48.42,0,0,1,5.2-7.14l1.86,1.56a1.43,1.43,0,0,0-1.2.43,2.35,2.35,0,0,0-.21,2.14,2.43,2.43,0,0,0-2.11.88,2.35,2.35,0,0,0-.45,2.08,2.63,2.63,0,0,0,1.32,1.65,3.06,3.06,0,0,0,2.09.43,2.65,2.65,0,0,0,1.66-1.06c.05-.07.14-.21.27-.43L44.5,59a4,4,0,0,1-.29.46c-.64.78-1.21,1-1.88.58s-1.06-1.11-.59-1.69a1,1,0,0,1,.95-.32,2.47,2.47,0,0,1,1,.36l.91-1.19a2.13,2.13,0,0,1-.55-.78.85.85,0,0,1,0-.92c.5-.6,1.43-.33,2.69.74l.67.59.65.62.86-.92-5.74-5.1Z"/><path class="cls-3" d="M55.23,42l-.65-1.1-1.64,1a2.67,2.67,0,0,0-2.19-1.3,4,4,0,0,0-2.81.83A8.11,8.11,0,0,0,45,45.24l1.1.46a11.93,11.93,0,0,1,2.3-3,2.83,2.83,0,0,1,1.69-.61,1.74,1.74,0,0,1,1.4.69,54.38,54.38,0,0,0-6,4.68l.88.93a31.49,31.49,0,0,1,3.28-2.69l2.17,2.74,1.52.11a21.51,21.51,0,0,1,1.55-2.41,1.42,1.42,0,0,1,.33.36,2.28,2.28,0,0,1,.33,1.76,2.31,2.31,0,0,1-.88,1.5,3.3,3.3,0,0,1-2.8.21,14.21,14.21,0,0,1-3.2-1.19l-.09,1.41a9.35,9.35,0,0,0,5.54,1.16,2.86,2.86,0,0,0,1.19-.37A4.21,4.21,0,0,0,57,48.52a4.12,4.12,0,0,0-.64-3,4.92,4.92,0,0,0-.54-.73l-1.4-.24A21,21,0,0,0,52.54,47l-1.65-2.22A44.08,44.08,0,0,1,55.23,42Z"/><path class="cls-3" d="M62.33,38.7l-.45-1.15a31.31,31.31,0,0,0-4.14,1.75l-2,1-1.94,1.13.67,1.09L56,41.54a1.59,1.59,0,0,1,1.16.18,2.09,2.09,0,0,0-1,1.12,1.53,1.53,0,0,0,.14,1.42,1.88,1.88,0,0,0,1.16.89A2.06,2.06,0,0,0,58.89,45a2.2,2.2,0,0,0,.9-.86l-1-1a1.73,1.73,0,0,1-.57.6.39.39,0,0,1-.58-.18c-.22-.38-.06-.7.47-.95A2.84,2.84,0,0,1,60,42.56a14,14,0,0,1,1.73.65,8.43,8.43,0,0,1,1.12-.57l-1.48-3.58Zm-1.47,2.76a10,10,0,0,0-2.22-.36,1.24,1.24,0,0,0-.75-.6l2.1-1Z"/><path class="cls-3" d="M65.27,37.71l-.39-1.23-4.34,1.57.54,1.15,2-.74L65,43.57a3.74,3.74,0,0,0-1.49-.49,4.53,4.53,0,0,0-1-1.27c-.5-.48-.9-.67-1.17-.56s-.4.43-.42.94a2.87,2.87,0,0,1,1.14,1.05l.06.18a2.28,2.28,0,0,0-1.08.9A1.29,1.29,0,0,0,61,45.66a1.72,1.72,0,0,0,1.08,1,1.86,1.86,0,0,0,1.41-.17l0-1.23c-.67.16-1,.18-1.19-.14s.11-.48.65-.69a2,2,0,0,1,1.57.26,4.67,4.67,0,0,1,1.29,1.06L67,45.29l-2.45-7.35Z"/><path class="cls-3" d="M68.43,36.92l-.31-1.24c-1.37.38-2.8.62-4.14,1.12L64.39,38a12.57,12.57,0,0,1,1.32-.41l2.22,7.25,1.27-.32-2-7.31Z"/><path class="cls-3" d="M76.24,35.73l-.1-1.27A37.08,37.08,0,0,0,71.7,35a30,30,0,0,0-4.39.89l.33,1.23a29.38,29.38,0,0,1,4.27-.87A35,35,0,0,1,76.24,35.73Zm.7,7.68a11.38,11.38,0,0,0-3.7-1.68c1.73-.88,2.6-1.94,2.48-3.24a2.19,2.19,0,0,0-1.45-1.87,4.66,4.66,0,0,0-2.58-.3,4,4,0,0,0-2,.77A1.75,1.75,0,0,0,69,38.92a1.42,1.42,0,0,0,.78,1,2.31,2.31,0,0,0,1.32.17l.67-1.28c-.7.07-1.07,0-1.12-.27-.1-.46.35-.77,1.33-.92a2.56,2.56,0,0,1,1.43.16,1.28,1.28,0,0,1,.76,1.06c.07.58-.34,1.1-1.22,1.54a6.4,6.4,0,0,1-2,.65c-.25.05-.74.13-1.49.22l1,1.66a6,6,0,0,1,3,.28,9.34,9.34,0,0,1,2.78,1.21Z"/><path class="cls-3" d="M81.32,38.59a2.08,2.08,0,0,0-.87,1.76A2.27,2.27,0,0,0,81.11,42a2.24,2.24,0,0,0,1.54.73,3.64,3.64,0,0,0,1.58-.42L84,40.93a4.23,4.23,0,0,1-1.13.32,1,1,0,0,1-.6-.28.74.74,0,0,1-.27-.59.81.81,0,0,1,.49-.68,1.56,1.56,0,0,1,.89-.21,3.17,3.17,0,0,1,2.1,1.13,2.6,2.6,0,0,1,1,2.07l-.15.94,1.3.19L89,36.38l1.1.17.26-1.24c-1.8-.28-3.6-.57-5.41-.79s-3.63-.23-5.45-.22l0,1.27a5.06,5.06,0,0,1,.87,0v.89l.94,0a3,3,0,0,1,1,.13,1.68,1.68,0,0,1,.69.62,1.28,1.28,0,0,1,.3.82A3,3,0,0,0,81.32,38.59Zm5.52,1.67A5.91,5.91,0,0,0,85,38.41a3,3,0,0,0-1.58-2.7,28,28,0,0,1,4.08.44Z"/><path class="cls-3" d="M92.54,45.27,93,43.81a2.41,2.41,0,0,1-1.05.25,1.93,1.93,0,0,1-1.52-1.21,3.92,3.92,0,0,1,0-2.09,3.59,3.59,0,0,1,1.63-2.1,5.21,5.21,0,0,1,2.7-1l.37-1.17c-1.91-.45-3.79-1-5.73-1.35l-.24,1.25a26.21,26.21,0,0,1,2.92.65,9.73,9.73,0,0,0-2,1.51,4,4,0,0,0-1.11,2,5.17,5.17,0,0,0,.49,3.56,2.89,2.89,0,0,0,2,1.13A2.46,2.46,0,0,0,92.54,45.27Z"/><path class="cls-3" d="M103.39,41.24l.61-1.12A52.19,52.19,0,0,0,93.22,36l-.33,1.22a36,36,0,0,1,4.66,1.46l-1.26,3.24.78,1.26a24.32,24.32,0,0,1,2.7,0,2.12,2.12,0,0,1-.19.55A2.41,2.41,0,0,1,98.29,45a2.27,2.27,0,0,1-1.68,0c-1.54-.55-2.25-2.29-2.41-5.32l-1.38.44a12,12,0,0,0,.82,3.62A4,4,0,0,0,96,46.23a3.55,3.55,0,0,0,2.83.11A4.48,4.48,0,0,0,101,44.18a7.16,7.16,0,0,0,.4-1l-.53-1.29c-1-.06-2-.19-2.95-.18L99,39.22C100.49,39.83,101.93,40.57,103.39,41.24Z"/><path class="cls-3" d="M112.25,47.12l.84-1c-1.5-1.26-3.13-2.37-4.73-3.51-1.71-1-3.33-2.1-5.14-2.9l-.6,1.13a47.29,47.29,0,0,1,7.6,4.68l-1.49,1.9a1.4,1.4,0,0,0-.52-1.13,2.35,2.35,0,0,0-2.16-.15A2.23,2.23,0,0,0,105,44.24a2.74,2.74,0,0,0-2.13-.38,2.65,2.65,0,0,0-1.61,1.38,2.9,2.9,0,0,0-.32,2.06,2.3,2.3,0,0,0,1.15,1.6,4.19,4.19,0,0,0,.46.22l1.19-1a3.31,3.31,0,0,1-.5-.24c-.87-.52-1.1-1.12-.7-1.79s1-1,1.69-.66a.87.87,0,0,1,.39.88,2.06,2.06,0,0,1-.3,1,12.11,12.11,0,0,1,1.28.82,2.08,2.08,0,0,1,.75-.57.86.86,0,0,1,.92,0c.64.46.44,1.34-.59,2.64l-.57.69c-.38.42-.57.65-.59.67l1,.74,4.89-5.87A9.1,9.1,0,0,1,112.25,47.12Z"/><path class="cls-3" d="M113.82,52.68a2.22,2.22,0,0,0-1.89.65,2.27,2.27,0,0,0-.7,1.61,2.08,2.08,0,0,0,.56,1.58,3.58,3.58,0,0,0,1.42.79l.79-1.15a3.86,3.86,0,0,1-1-.56.9.9,0,0,1-.22-.6.72.72,0,0,1,.23-.6.83.83,0,0,1,.85-.15,1.52,1.52,0,0,1,.77.46,3,3,0,0,1,.67,2.25,2.58,2.58,0,0,1-.76,2.16l-.78.57.78,1,6.37-4.32a7.94,7.94,0,0,1,.63.89l1.09-.71c-1-1.46-2.15-2.87-3.25-4.27s-2.4-2.68-3.72-3.9l-.91.91c.21.2.44.38.63.59l-.65.63.64.68A2.58,2.58,0,0,1,116,52a1.6,1.6,0,0,1,0,.92,1.3,1.3,0,0,1-.39.79A2.91,2.91,0,0,0,113.82,52.68Zm2.71,5a5.52,5.52,0,0,0,0-2.6,3,3,0,0,0,.84-3A30.61,30.61,0,0,1,120,55.17Z"/><path class="cls-3" d="M123.24,60.05l1.13-.64c-.75-1.18-1.45-2.41-2.27-3.55l-1.07.72a10.54,10.54,0,0,1,.75,1.13l-6.5,4.12.68,1.09L122.59,59Z"/><path class="cls-3" d="M126.55,66.9l1.22-.45a28.41,28.41,0,0,0-1.75-4,29.24,29.24,0,0,0-2.09-3.8l-1.12.65.44.71-3.75,2.09-.33,1.33a14.94,14.94,0,0,1,3.77,2.09,16.44,16.44,0,0,0-2.72.93A9,9,0,0,0,118.28,68c.32.23.58.49.87.74a8.65,8.65,0,0,1,2-1.3,7.91,7.91,0,0,1,3-.36c.33-.55.68-1.11,1-1.67a19.69,19.69,0,0,0-3.57-2.72L124,61.37A50,50,0,0,1,126.55,66.9Z"/><path class="cls-3" d="M116.73,71.09c.64-1,1.31-2,1.89-3.1L117,67.91A27.07,27.07,0,0,1,115.26,71Z"/><path class="cls-3" d="M129,75.45l1.29-.23a49.73,49.73,0,0,0-2.83-9.61l-1.21.47,1.28,3.41c.35,1.16.63,2.33,1,3.5a27.93,27.93,0,0,0-2.34-3.11,20.42,20.42,0,0,0-2.38-2.11l-1.29.88a5.7,5.7,0,0,1,0,3.35A5.77,5.77,0,0,1,121,74.9c.09.37.21.73.27,1.1l7.63-1.49Zm-7.88-2.13a4.74,4.74,0,0,0,.9-2.19L120.67,71a4.16,4.16,0,0,1-.65,1.84Zm1.93,1a9.65,9.65,0,0,0,1.14-4.09,16.06,16.06,0,0,1,2.7,3.21Z"/><path class="cls-3" d="M129.51,78.73l1.29-.14-.65-4.15-1.28.25.22,1.33-7.65,1.26.19,1.26,7.69-1Z"/><path class="cls-3" d="M129.65,87l1.3.07a28.75,28.75,0,0,0,.1-4.73,37.25,37.25,0,0,0-.4-4.71l-1.29.16.18,1.2c-.66,1.59-1.66,2.38-2.87,2.44a2.89,2.89,0,0,1-1.33-.34c-.6-.27-.9-.54-.92-.84a2.8,2.8,0,0,1,.6-1.3l-1.57.18a3.63,3.63,0,0,0-.44,1.36A1.86,1.86,0,0,0,124.09,82l1.72.73c.83.42,1.25.8,1.27,1.12a.55.55,0,0,1-.27.5,1,1,0,0,1-.61.2l-4.07,0L122,85.79l7.67.3Zm-1.56-2.41a1,1,0,0,0,.38-.88,1.67,1.67,0,0,0-.56-1.12,3.59,3.59,0,0,0,1.78-1.21c0,1.08.16,2.15.11,3.22Z"/><path class="cls-3" d="M129.41,90.48l1.29.17.29-4.18-1.3-.06-.09,1.34-7.74-.56-.08,1.28,7.71.79Z"/><path class="cls-4" d="M44.12,86.48s.06,1.71.29,3.41.6,3.38.6,3.38l.24-.54s-.1-.47-.19-.94-.16-.94-.16-.94a1.18,1.18,0,0,0,.53.41,1,1,0,0,0,.58.1.77.77,0,0,0,.29-.14.71.71,0,0,0,.32-.61,1.67,1.67,0,0,0,0-.34,2.79,2.79,0,0,0-.22-.64c-.08-.19-.12-.29-.15-.29s0,0,0,.08a0,0,0,0,1,0,0,.37.37,0,0,1,.26-.15c.17,0,.33.08.48.3a1.43,1.43,0,0,1,.26.64,1.3,1.3,0,0,1-.09.56,2.34,2.34,0,0,1-.24.5,1.87,1.87,0,0,1-.65.64L46,92a2.25,2.25,0,0,1-.35.16l0,.37.52-.27a4.37,4.37,0,0,0,.81-.48,1.55,1.55,0,0,0,.46-.53,2.05,2.05,0,0,0,.27-1.36c-.09-.63-.39-1-.92-1a1.84,1.84,0,0,0,.63-.82,1.35,1.35,0,0,0,0-.49,1.78,1.78,0,0,0-.1-.44c-.11-.28-.27-.42-.47-.41a1.34,1.34,0,0,0-.65.39c-.17-.29-.35-.44-.52-.43a1.12,1.12,0,0,0-.39.18.85.85,0,0,0-.25.52A1.67,1.67,0,0,0,45,88a1,1,0,0,0,.09.29l.15.23a4,4,0,0,0,.41.47.44.44,0,0,1,.09.16c0,.1-.08.24-.27.44l-.41.23-.3,0s-.13-1-.2-1.93-.1-1.93-.1-1.93Zm2.12,4c0,.28-.06.42-.33.43a.82.82,0,0,1-.43-.2.58.58,0,0,1-.3-.39,0,0,0,0,1,0,0,8.67,8.67,0,0,0,.61-.64A1.79,1.79,0,0,1,46.24,90.52ZM47,87.61a1.33,1.33,0,0,1-.26.89,1,1,0,0,1-.65.45c-.06,0-.16-.07-.33-.23a1.6,1.6,0,0,1-.5-.89,1,1,0,0,1,.1-.49.23.23,0,0,1,.16-.16c.09,0,.21.09.35.26a.45.45,0,0,0-.12.34.45.45,0,0,0,.27.43.29.29,0,0,0,.27,0c.13,0,.18-.2.17-.43a1,1,0,0,0-.16-.46.5.5,0,0,1,.32-.25.14.14,0,0,1,.13,0A.57.57,0,0,1,47,87.61Z"/><path class="cls-4" d="M44.11,84.51v.36c0,.18,0,.36,0,.36a1.08,1.08,0,0,1-.14.15,1.4,1.4,0,0,1-.36.13l-.11.19.55,0a5.73,5.73,0,0,0,.94-.17,2.88,2.88,0,0,0-.42.22.87.87,0,0,0-.44.73,4,4,0,0,0,0,.75l.32-.5v-.12a1,1,0,0,1,.29-.76.49.49,0,0,1,.36-.14l2.54,0,.34-.41-3.56,0v-.59l0-.59Z"/><path class="cls-4" d="M44.42,80.18l-.09.76,0,.37,0,.41-.07.91c-.06.61,0,1.23-.07,1.69v.77l.17-.24.18-.24v-.5c0-.3,0-.7,0-1.1l.12-1.6,1.8.18a2,2,0,0,0-.34.19,1.75,1.75,0,0,0-.88,1.36,1.38,1.38,0,0,0,.19.8.66.66,0,0,0,.55.34l.15,0q.49-.09.51-.81a.79.79,0,0,0-.12-.5.37.37,0,0,0-.4-.12.51.51,0,0,0-.22.11l-.17.14s0,0,0-.08a1.3,1.3,0,0,1,.3-.75,2.11,2.11,0,0,1,1.3-.72,1.49,1.49,0,0,1,.73,0l.19-.14-3.51-.41.14-1.2Z"/><path class="cls-4" d="M46.86,78l0,.1a1.92,1.92,0,0,0-.05.24l-.13.75-.13.75,0,.34.42.07,0-.34.13-.74.13-.74c0-.1,0-.19,0-.25l0-.09Z"/><path class="cls-4" d="M46.45,72l-.09.24c-.06.15-.14.36-.22.62l-.29.89-.17.5-.14.52-.29,1c-.09.33-.15.65-.21.91l-.2.89.44-.38.16-.69c.08-.41.24-1,.39-1.49.07-.27.14-.55.22-.8l.23-.68.22-.67,2.09.77-.76.2a.91.91,0,0,0-.17-.09,1.07,1.07,0,0,0-.94.16,1.55,1.55,0,0,0-.68.93,1.41,1.41,0,0,0,0,.6q0,.33.27.39a.37.37,0,0,0,.38-.13,1,1,0,0,0,.27-.45.65.65,0,0,0-.18-.71.39.39,0,0,1,.35-.25.67.67,0,0,1,.4,0,.48.48,0,0,1,.33.36,1.24,1.24,0,0,1,0,.63,1.79,1.79,0,0,1-.91,1.15,4.92,4.92,0,0,1-1.25.42l-.15.26a3.86,3.86,0,0,0,1.64-.41,2.17,2.17,0,0,0,1.25-1.32,1.88,1.88,0,0,0,.06-.31,1.5,1.5,0,0,0,0-.3,1.65,1.65,0,0,0-.21-.57,2.9,2.9,0,0,1,1.55-.43l.15-.11-3.25-1.25.29-.76Z"/><path class="cls-4" d="M47.33,69.87l-.29.65-.18.08a1.33,1.33,0,0,1-.39,0l-.17.12a3.89,3.89,0,0,0,.52.2,7.21,7.21,0,0,0,.92.23,2.32,2.32,0,0,0-.46,0,.83.83,0,0,0-.69.49,4,4,0,0,0-.27.7l.5-.32,0-.12a1,1,0,0,1,.56-.58.51.51,0,0,1,.38,0l2.34,1,.24-.11.24-.12-3.26-1.46.48-1.08Z"/><path class="cls-4" d="M49.42,65.88l-.11.18c-.08.12-.17.29-.29.49l-.39.7c-.14.25-.29.52-.43.8l-.41.82c-.13.26-.25.51-.34.73l-.31.71.5-.29.17,0a1.09,1.09,0,0,0,.28-.16,2.53,2.53,0,0,0,.33-.37,3.31,3.31,0,0,1,.41-.46.75.75,0,0,1,.84-.1c-.05,0-.11.1-.2.27a1.28,1.28,0,0,0-.16.64.48.48,0,0,0,.28.45.34.34,0,0,0,.14,0,.42.42,0,0,1,.14,0l.18-.06a.82.82,0,0,0,.37-.42,1,1,0,0,0,.11-.5q0-.31-.06-.33h0a2.31,2.31,0,0,1,.67-.41,1,1,0,0,1,.64-.07,1.82,1.82,0,0,1,.32.07l.22-.08-3-1.82.09-.17.22-.36.33-.53Zm.77,2.76a1.7,1.7,0,0,0-.63-.21,1.05,1.05,0,0,0-.62.12c-.14.07-.42.23-.85.5l.49-1c.12-.24.26-.48.36-.66l.17-.29,2,1.21C50.73,68.45,50.4,68.56,50.19,68.64Z"/><path class="cls-4" d="M52.17,61.93l-.5.66-.52.67-.56.81c-.19.27-.38.54-.55.8l-.45.73-.32.51a2.08,2.08,0,0,0-.12.2,2.92,2.92,0,0,1,.28-.12l.27-.12.3-.48c.19-.29.42-.68.68-1l.71-1,.35-.45.74.59a.76.76,0,0,0-.39,0l-.21,0a.71.71,0,0,0-.36.28.64.64,0,0,0-.09.38.42.42,0,0,0,.1.32l-.22,0a1.28,1.28,0,0,0-.7.56,1,1,0,0,0-.13.8.88.88,0,0,0,.39.56,1.08,1.08,0,0,0,.24.12.82.82,0,0,0,.66-.08,1.62,1.62,0,0,0,.58-.56.7.7,0,0,0,.11-.73c0-.07-.14-.12-.32-.15a.49.49,0,0,0-.51.22.58.58,0,0,0-.12.37.31.31,0,0,0,.14.27.35.35,0,0,0,.29,0c-.25.3-.49.38-.72.23a.52.52,0,0,1-.21-.45,1,1,0,0,1,.16-.58,1,1,0,0,1,.52-.43,1.78,1.78,0,0,1,.36-.06q.16,0,.18,0l.07-.19-.16-.07a.31.31,0,0,1-.17-.2.32.32,0,0,1,0-.28.57.57,0,0,1,.36-.28.36.36,0,0,1,.37,0l1.49,1.18.53-.13L52,62.69l.35-.46c.09-.12.19-.22.26-.31l.11-.14Z"/><path class="cls-4" d="M55.48,61.3l-.23.25c-.14.15-.33.34-.51.55l-.7.84.32.28.7-.83.5-.54.23-.25Z"/><path class="cls-4" d="M57.48,56.6l-.16.13-.42.35-1.24,1.1-1.18,1.16-.51.55.57-.11.16-.17.17-.17,1.36,1.42.75-.07a2.53,2.53,0,0,1,0-1.34,3.07,3.07,0,0,1,.41-.87,2.87,2.87,0,0,0,.49.77,4,4,0,0,0,.74.68l.35.25.28-.1a4.15,4.15,0,0,1-.56-.49,1.52,1.52,0,0,1-.22-.22,2.93,2.93,0,0,1-.57-1.65l-.14,0-.3.06L57,58a4.19,4.19,0,0,0-.59,1.22c0,.07-.07.26-.13.57s-.08.34-.09.37l-1-1.06.42-.41c.25-.26.61-.56,1-.88l.52-.46c.17-.15.34-.27.47-.38l.46-.38Z"/><path class="cls-4" d="M58.94,55.47l-.57.42-.19,0a1,1,0,0,1-.32-.22l-.21,0a4.29,4.29,0,0,0,.35.43,6.9,6.9,0,0,0,.69.67,3.2,3.2,0,0,0-.41-.21.82.82,0,0,0-.84.07,3,3,0,0,0-.57.48,2.33,2.33,0,0,1,.29,0h.29l.1-.08a.91.91,0,0,1,.77-.21.53.53,0,0,1,.32.21l1.54,2.07h.26l.26,0-2.12-2.93.94-.68Z"/><path class="cls-4" d="M61.09,54.42a1.85,1.85,0,0,0-.35.91.58.58,0,0,0,.09.3c.18.29.44.32.8.09s.34-.33.25-.48a.44.44,0,0,0-.47-.23.92.92,0,0,1,.1-.31l.09-.14.1-.15a1.89,1.89,0,0,1,.6-.54c.27-.15.47-.16.62,0A.3.3,0,0,1,63,54c.08.14,0,.31-.1.5a.85.85,0,0,0-.36.12.6.6,0,0,0-.27.32.4.4,0,0,0,0,.34.42.42,0,0,0,.17.15.51.51,0,0,0,.51-.07.59.59,0,0,0,.28-.32.45.45,0,0,1,.39.15l0,.12a.58.58,0,0,1-.12.52,1.38,1.38,0,0,1-.45.41,1.71,1.71,0,0,1-.48.18,3.29,3.29,0,0,1-.59.07,2.16,2.16,0,0,1-.73-.11,8.45,8.45,0,0,1-1.25-.55l-.32-.18-.33.08a10.62,10.62,0,0,0,1.36.83,3.44,3.44,0,0,0,1.05.36,3.66,3.66,0,0,0,.76,0,1.76,1.76,0,0,0,.76-.23A1.6,1.6,0,0,0,64,56a.83.83,0,0,0,0-.82,1.09,1.09,0,0,0-.71-.49.94.94,0,0,0,0-.49,1.16,1.16,0,0,0-.19-.54.65.65,0,0,0-.56-.23,1.5,1.5,0,0,0-.72.24A2.58,2.58,0,0,0,61.09,54.42Z"/><path class="cls-4" d="M67.06,51l-.68.27-.7.28L64.9,52l-.78.36-.67.35L62.8,53l.6.1a1.16,1.16,0,0,0,.85-.1,1.68,1.68,0,0,1,.68-.16.69.69,0,0,1,.23,0l-.33.48a7.37,7.37,0,0,0-.49.91l.78.26a3,3,0,0,1,.73-.24,2.09,2.09,0,0,1,.77.06,2,2,0,0,1,.68.3l.29.23.22.08-1.3-3.33.56-.23.38-.15.18-.06-.28-.09Zm-.62,4.11a.31.31,0,0,0,0-.31.35.35,0,0,0-.24-.12.48.48,0,0,0-.31,0,.45.45,0,0,0-.25.26.33.33,0,0,0,.3.43.51.51,0,0,0,.3,0A.46.46,0,0,0,66.44,55.14Zm-.73-1.2a3,3,0,0,0-.46.05,6.27,6.27,0,0,1,.33-.7,3.64,3.64,0,0,0,.29-.51c-.46-.15-.72-.22-.78-.23a3.5,3.5,0,0,0-.54,0l.76-.35.52-.25.25-.09,1,2.47A2.35,2.35,0,0,0,65.71,53.94Z"/><path class="cls-4" d="M68.82,50.4l-.66.23a.74.74,0,0,1-.18-.09,1.28,1.28,0,0,1-.24-.31l-.21,0a4.88,4.88,0,0,0,.21.53,6,6,0,0,0,.46.86,3.48,3.48,0,0,0-.34-.34A.81.81,0,0,0,67,51a3.93,3.93,0,0,0-.68.28l.57.15.11,0a1,1,0,0,1,.4-.08.93.93,0,0,1,.39.12.49.49,0,0,1,.24.3l.84,2.46.5.21L68.27,51l.55-.19.37-.13.18,0-.28-.1A2.15,2.15,0,0,0,68.82,50.4Z"/><path class="cls-4" d="M74,49.16l-.89.16c-.27,0-.58.1-.91.18l-1,.24-.53.13-.5.14-.9.26-.62.21-.24.08.55.19a1.33,1.33,0,0,1,.23-.08l.63-.19.89-.25,1-.25c.7-.18,1.41-.3,2-.4s.89-.14.89-.14l-.27-.15Zm-1.66,1a3,3,0,0,0-.41,0,1.36,1.36,0,0,0-.68.37.62.62,0,0,0-.2.59.71.71,0,0,0,.07.16.66.66,0,0,0,.82.31c.44-.1.63-.32.57-.64a.51.51,0,0,0-.25-.35,1.38,1.38,0,0,1,.28-.1.78.78,0,0,1,.88.6.69.69,0,0,1-.24.62,1.91,1.91,0,0,1-.79.48,2.06,2.06,0,0,1-1.64-.3,5.1,5.1,0,0,1-.66-.52c-.17-.16-.37-.35-.6-.59H69.2c.24.32.58.7,1,1.17a3.1,3.1,0,0,0,.66.5,4.07,4.07,0,0,0,.54.28,1.54,1.54,0,0,0,.5.09,2.11,2.11,0,0,0,.52,0,2.43,2.43,0,0,0,.89-.43,1.06,1.06,0,0,0,.51-1.08.94.94,0,0,0-.16-.42A1.43,1.43,0,0,0,72.33,50.18Z"/><path class="cls-4" d="M85.87,48.56,85.5,49l.27.21.26.21.39-.42Zm1,1.84c-.08-.08-.3-.27-.69-.58l-.34.51.05,0-.33.47a1.59,1.59,0,0,0-.23.51.37.37,0,0,0,.12.36.89.89,0,0,0,.39.19,1.06,1.06,0,0,0,1-.15,1.36,1.36,0,0,0,.34-.66A.79.79,0,0,0,86.85,50.4Zm-.37,1a1.1,1.1,0,0,1-.44,0,.34.34,0,0,1-.29-.45c0-.1.15-.23.39-.38.45.34.65.57.62.68S86.65,51.36,86.48,51.39Zm.31-2.93-.39.41.53.42.4-.41Z"/><path class="cls-4" d="M90.31,52.56c.25-.68.2-1.1-.15-1.23a.59.59,0,0,0-.61.16,1.34,1.34,0,0,0-.37.56c-.14.44.1.75.7,1a7.1,7.1,0,0,1-.9.5,1.57,1.57,0,0,1-1.16.06,4.6,4.6,0,0,1-.7-.35l-.09.1.57.39a2.78,2.78,0,0,0,.61.32,1.32,1.32,0,0,0,1.19-.24,1.85,1.85,0,0,0,.78-.9Zm-.73-.62c0-.13.14-.18.3-.12s.26.29.21.67C89.68,52.33,89.5,52.16,89.58,51.94Z"/><path class="cls-4" d="M91.63,53.07c-.29-.4-.4-.69-.31-.93s.16-.15.36-.14a2,2,0,0,1,.78.23,3.51,3.51,0,0,1,.74.48l.09,0a3.18,3.18,0,0,0-.21-.55,1.36,1.36,0,0,0-.61-.51,1.48,1.48,0,0,0-1-.12.82.82,0,0,0-.58.5,1.41,1.41,0,0,0,0,.79l-.79-.32-.2.56.8.32.6.21a5.26,5.26,0,0,0,.6.19,12.75,12.75,0,0,0,1.26.24l.49-.44-.52-.12-.51-.11C92.26,53.25,91.94,53.16,91.63,53.07Z"/><path class="cls-4" d="M95.92,55.38a3.49,3.49,0,0,0,.5-1.25,1.67,1.67,0,0,0-.34-1.26l-.37.54a1.4,1.4,0,0,1,0,1.85l-1.18-.69a.38.38,0,0,1-.22-.41l-.07,0a1.46,1.46,0,0,0-.27.38.32.32,0,0,0,0,.31.77.77,0,0,0,.26.28l.68.39.46.27.21.14Z"/><path class="cls-4" d="M97.22,56.15l.55-1.23.52-1.24.13.15a1.76,1.76,0,0,0,.45-.48L98.61,53a.34.34,0,0,1-.06-.4l0-.06a1.72,1.72,0,0,0-.59.61l.12.18-.57,1.34L96.88,56l-1.17-.76-.3.5.23.15.5.33.49.32.23.15Z"/><path class="cls-4" d="M99.68,53.65c-.26.12-.48.22-.66.32a23.31,23.31,0,0,1-1.5,2.79c0,.07-.13.18-.25.32l0,.06a1.93,1.93,0,0,0,.81-.59A20.26,20.26,0,0,0,99.68,53.65Z"/><path class="cls-4" d="M103.47,61.87l-.14-.16c-.08-.1-.21-.24-.37-.41l-.53-.57c-.2-.21-.41-.44-.63-.65-.44-.42-.87-.86-1.22-1.16l-.57-.51-.37.46.56.5c.35.28.76.72,1.2,1.13.22.21.42.43.61.64l.53.56c.16.17.28.31.36.41l.14.16Z"/><path class="cls-4" d="M108.21,65.88l.92-.83.07.22a2,2,0,0,0,.59-.25l-.09-.49a.31.31,0,0,1,.14-.3l0-.07a1.56,1.56,0,0,0-.79.27l0,.2a21.63,21.63,0,0,1-2.34,2.06c-.17.11-.41,0-.73-.2a3.69,3.69,0,0,1-.76-.81,1.63,1.63,0,0,1-.33-.84.77.77,0,0,1,.31-.64,2.38,2.38,0,0,1,1.29-.37l0-.14a3.25,3.25,0,0,0-1.74.54c-.52.41-.52,1,0,1.79.18.24.33.46.48.62a1.82,1.82,0,0,0,.46.37,1.14,1.14,0,0,0,1.22-.11A10.26,10.26,0,0,0,108.21,65.88Z"/><path class="cls-4" d="M108.42,69.38a2.53,2.53,0,0,0,.83-1.11,1.62,1.62,0,0,0-.46-.37,1.76,1.76,0,0,0-.71-.24,1.14,1.14,0,0,1-.89-.58l-.13-.24-.15-.24-.49.31a2.59,2.59,0,0,1,.14.24l.14.24a1.55,1.55,0,0,0,.4.5,1.18,1.18,0,0,0,.48.2,2,2,0,0,0,.16,1.23l.16.33Zm-.17-.41a1.37,1.37,0,0,1,0-.91.78.78,0,0,1,.55.26,1.61,1.61,0,0,1-.45.66Z"/><path class="cls-4" d="M109.58,72.06l-.19-.5a.67.67,0,0,1,0-.26.55.55,0,0,1,0-.28c.36.21.6.29.74.23.31-.13.35-.53.06-1.16a1.58,1.58,0,0,0-.39-.58.53.53,0,0,0-.54,0l-.18.08,0,.07a.28.28,0,0,1,.2.16.33.33,0,0,1,0,.24l-.12.28a2.65,2.65,0,0,1-.41-.41,4.39,4.39,0,0,1-.32-.51l-.14-.29-.52.26.14.29a3.66,3.66,0,0,0,.43.65,1.79,1.79,0,0,0,.56.43.86.86,0,0,0-.15.52,1.27,1.27,0,0,0,.08.48l.19.49Z"/><path class="cls-4" d="M110.17,73.48l1.16-.65,1.15-.67v.21a1.64,1.64,0,0,0,.63-.12v-.42a.35.35,0,0,1,.19-.36V71.4a1.65,1.65,0,0,0-.83.12v.22l-1.24.72-1.26.7-.07-.21a4.51,4.51,0,0,0-.17-.46l-.25-.67L109,72l.32.82c.08.21.14.42.19.57l.09.26Z"/><path class="cls-4" d="M113.61,73l-.72-.16a20.64,20.64,0,0,1-2.84,1.31l-.38.09v.07a1.91,1.91,0,0,0,1,0A20.2,20.2,0,0,0,113.61,73Z"/><path class="cls-4" d="M111.8,81.91l-.06-.78c0-.46-.14-1.07-.21-1.69s-.22-1.22-.29-1.68c0-.23-.1-.41-.12-.55l-.05-.2-.56.13,0,.2c0,.13.08.32.12.54.08.45.19,1.05.29,1.65s.15,1.21.2,1.66l.06.76Z"/><path class="cls-4" d="M111.85,86.81c.6-.37.91-.75.92-1.08s-.2-.62-.63-.81l-.1.17a.65.65,0,0,1,.25.44.62.62,0,0,1-.15.37,3.34,3.34,0,0,1-.26.28,3.25,3.25,0,0,0-.26-1.3.92.92,0,0,0-.87-.45c-.09,0-.73.2-1.92.54a1.83,1.83,0,0,0,.5.09,2.85,2.85,0,0,0,.75-.15,2.69,2.69,0,0,1,.76-.16c.16,0,.29.19.37.56a3.82,3.82,0,0,1,.08,1l0,.42Z"/><path class="cls-4" d="M111.79,88.35l1.32-.08,1.32-.1-.07.19a1.71,1.71,0,0,0,.62.17l.17-.39a.32.32,0,0,1,.31-.23l0-.07a1.67,1.67,0,0,0-.8-.25l-.1.2-1.42.11-1.42.08.06-.71,0-.71-.58,0s0,.44,0,.87l0,.61,0,.27Z"/><path class="cls-4" d="M111.3,91.24l0-.26,0-.26a.86.86,0,0,1,.1-.26.42.42,0,0,1,.17-.21c.19.37.36.58.51.6.33.06.55-.25.65-.94a1.43,1.43,0,0,0,0-.71.56.56,0,0,0-.47-.27l-.2,0V89a.29.29,0,0,1,.09.24.36.36,0,0,1-.11.21l-.25.17a2.76,2.76,0,0,1-.14-1.18l0-.33-.58-.06,0,.32a2.32,2.32,0,0,0,.26,1.46.88.88,0,0,0-.4.35,1.41,1.41,0,0,0-.18.45l0,.26,0,.26Z"/><path class="cls-4" d="M111.05,92.76l1.32.1,1.31.07-.09.18a1.63,1.63,0,0,0,.59.26l.22-.37c.1-.15.21-.22.34-.19l.05-.06a1.78,1.78,0,0,0-.76-.36l-.13.19-1.42-.09-1.42-.1s.08-.35.15-.7.13-.7.13-.7l-.56-.11s-.08.44-.17.87-.19.86-.19.86Z"/><path class="cls-4" d="M114.19,94.26c-.19-.21-.36-.38-.52-.53a20.81,20.81,0,0,1-3.07-.47,2.41,2.41,0,0,1-.37-.13l0,.06a2,2,0,0,0,.82.57A19.2,19.2,0,0,0,114.19,94.26Z"/><path class="cls-4" d="M80.22,48.86l.22.57.21.57s0,0,0,0h.22a4.53,4.53,0,0,1,.5,0l.72,0s.07.07,0,.09l-.6.3-.4.21-.19.11a0,0,0,0,0,0,0l.19.57.18.58s0,.07-.08,0l-.17-.12-.37-.25-.55-.36h-.06l-.56.33L79,52s-.1,0-.08,0l.2-.57.21-.58s0,0,0,0l-.58-.33-.59-.33a0,0,0,0,1,0-.09l.72,0h.73a.05.05,0,0,0,.05,0l.23-.56.23-.56S80.21,48.81,80.22,48.86Z"/><path class="cls-2" d="M106.67,124.81a1.39,1.39,0,0,1-1.39-1.39V84.83c0-9.47-8.88-18.57-25.19-27.69C63.78,66.26,54.72,75.36,54.72,84.83v38.59a1.4,1.4,0,0,1-2.79,0V84.83c0-10.78,9.42-21.69,27.24-31.54a1.74,1.74,0,0,1,1.67,0c17.81,9.84,27.23,20.75,27.23,31.53v38.59A1.4,1.4,0,0,1,106.67,124.81ZM79.49,55.73Zm1,0h0Z"/><path class="cls-5" d="M140.72,106.56a31.75,31.75,0,0,1-16.08,20.73l-.19,6s-10.89-2.26-16,1.25-14,11.9-28.28,11.29h-.36c-14.26.61-23.24-7.83-28.28-11.29s-16-1.25-16-1.25l-.19-6a31.75,31.75,0,0,1-16.08-20.73c1.59,1.87,9.17,3.74,9.17,3.74l.78-10.84s4.18,11,12,16.63l-3.73,3.12s6.33-.36,15.57,2.84c9.06,3.15,11.71,11,26.69,11.2h.48c15-.17,17.63-8,26.71-11.2,9.25-3.2,15.55-2.84,15.55-2.84l-3.73-3.12c7.82-5.6,12-16.63,12-16.63l.81,10.84S139.13,108.43,140.72,106.56Z"/><path d="M77,96.63H75.57v.21h0a.75.75,0,0,1,.38.1,1.18,1.18,0,0,1,.32.27,1.26,1.26,0,0,1,.21.36,1.08,1.08,0,0,1,.08.38.69.69,0,0,1,0,.2.56.56,0,0,1-.09.17.35.35,0,0,1-.14.13.41.41,0,0,1-.19,0,.35.35,0,0,1-.14,0,.41.41,0,0,1-.11-.07.38.38,0,0,1-.08-.11.22.22,0,0,1,0-.13.3.3,0,0,1,0-.16.69.69,0,0,1,.11-.13l.08,0h.08a.3.3,0,0,1,.16,0l.13.1v0a.55.55,0,0,0-.07-.28.66.66,0,0,0-.17-.23.82.82,0,0,0-.25-.16.63.63,0,0,0-.27,0h-.06v2.22h0l0,0,0-.06a2,2,0,0,0-.2-.44,1.48,1.48,0,0,0-.29-.36,1.19,1.19,0,0,0-.38-.25,1.41,1.41,0,0,0-.48-.13l-.38-.48a3.53,3.53,0,0,1,.35-.25,3.85,3.85,0,0,1,.4-.24,4.08,4.08,0,0,1,.42-.19l.4-.15v-.22H73.58l-.28-.28h3.47Zm-1.75,2.06V97.23l-.28.11-.25.13-.24.15-.24.16a2.3,2.3,0,0,1,.58.37A2.09,2.09,0,0,1,75.29,98.69Z"/><path d="M76.46,100.67a2.13,2.13,0,0,0-.16-.25c-.07-.08-.13-.16-.2-.23l-.23-.2a2.56,2.56,0,0,0-.25-.16l-.11.15-.12.1a.47.47,0,0,1-.15.06.52.52,0,0,1-.18,0,.51.51,0,0,1-.17,0,.36.36,0,0,1-.15-.08.25.25,0,0,1-.11-.12.28.28,0,0,1,0-.16.41.41,0,0,1,0-.19.37.37,0,0,1,.12-.13.51.51,0,0,1,.16-.09.69.69,0,0,1,.2,0,.27.27,0,0,1,.12,0l.12,0,.1,0,0,0,0,0a0,0,0,0,1,0,0v-.07a.34.34,0,0,0,0-.1s0-.08,0-.11a.43.43,0,0,1,0,0,.07.07,0,0,1,0,0,.28.28,0,0,1,.12.16.52.52,0,0,1,0,.21,1.09,1.09,0,0,0,0,.18l.26.18a2.73,2.73,0,0,1,.25.23,1.67,1.67,0,0,1,.18.28.68.68,0,0,1,.08.31S76.46,100.64,76.46,100.67Zm-1.38-1.1-.09,0-.08,0,0,.06a.14.14,0,0,0,0,.09.11.11,0,0,0,0,.09.17.17,0,0,0,.1,0,.2.2,0,0,0,.1,0l.13,0,.11-.07a.15.15,0,0,0,.05-.08s0,0,0-.06l-.09,0h-.16Z"/><path d="M79.58,96.63H79v2.83l0,0,0,0s0,0,0,0l0-.06-.12-.2a1.49,1.49,0,0,0-.14-.24,1.44,1.44,0,0,0-.18-.25,1.7,1.7,0,0,0-.24-.22,1.28,1.28,0,0,0-.33-.17,1.65,1.65,0,0,0-.42-.08l-.37-.5a6.52,6.52,0,0,1,.8-.48,5,5,0,0,1,.86-.36v-.18H77l-.28-.28H79.3Zm-.88,2.14V97.23l-.29.11-.28.13-.26.15-.26.18a2.17,2.17,0,0,1,.64.38A2.05,2.05,0,0,1,78.7,98.77Zm-.78.46a.27.27,0,0,1-.12,0l-.09-.06a.61.61,0,0,1-.07-.1.27.27,0,0,1,0-.12.19.19,0,0,1,0-.1.24.24,0,0,1,.06-.09l.08-.06.1,0a.27.27,0,0,1,.12,0,.24.24,0,0,1,.09.06l.07.09a.5.5,0,0,1,0,.12.36.36,0,0,1,0,.1.24.24,0,0,1-.06.09.16.16,0,0,1-.08.06A.19.19,0,0,1,77.92,99.23Z"/><path d="M82.94,96.63h-.6v2.85l-.11-.08a1.72,1.72,0,0,0-.23-.58,4.67,4.67,0,0,0-.36-.51,1,1,0,0,1-.28.29.68.68,0,0,1-.4.12.86.86,0,0,1-.39-.09,1.62,1.62,0,0,1-.34-.26A2.48,2.48,0,0,1,80,98a4.23,4.23,0,0,1-.22-.42,3.75,3.75,0,0,1-.16-.43c0-.14-.08-.27-.1-.38l.17.07.12.31a2.92,2.92,0,0,0,.14.31,2.14,2.14,0,0,0,.17.3,1.7,1.7,0,0,0,.22.24,1.17,1.17,0,0,0,.28.17.93.93,0,0,0,.34.06.71.71,0,0,0,.21,0,.56.56,0,0,0,.17-.09L81.4,98a.46.46,0,0,0,0-.2,1,1,0,0,0,0-.15.49.49,0,0,0-.06-.17.34.34,0,0,0-.09-.14.14.14,0,0,0-.12-.06.46.46,0,0,1-.14.21.36.36,0,0,1-.24.08.45.45,0,0,1-.16,0,.39.39,0,0,1-.14-.08.43.43,0,0,1-.11-.12.38.38,0,0,1,0-.16.25.25,0,0,1,0-.17.34.34,0,0,1,.12-.12l.17-.07.19,0a.75.75,0,0,1,.26,0,.7.7,0,0,1,.24.13.73.73,0,0,1,.2.19,1,1,0,0,1,.15.24.77.77,0,0,1,.07.26.87.87,0,0,1,0,.28l.28.54V96.63H79.4l-.27-.28h3.53Z"/><path d="M84.07,96.63h-.69v2.92l0,0-.09-.1-.14-.15V97.18a.82.82,0,0,0,0-.23.62.62,0,0,0-.07-.19.28.28,0,0,0-.13-.11.44.44,0,0,0-.21,0l-.22-.28h.18a.46.46,0,0,1,.21,0,.44.44,0,0,1,.15.1,1,1,0,0,1,.12.19,2.91,2.91,0,0,1,.1.28.76.76,0,0,0,0-.15,1.41,1.41,0,0,0,0-.18,1.93,1.93,0,0,1,0-.27c0-.1,0-.24,0-.4l.11.09a.56.56,0,0,0,0,.1l0,.07,0,.06.07.07h.42Z"/><path d="M86.69,96.63h-.61v2.91L86,99.4v-.08a1.25,1.25,0,0,0,0-.31,2.83,2.83,0,0,0-.09-.37,2.54,2.54,0,0,0-.16-.38,1.63,1.63,0,0,0-.21-.34,1.13,1.13,0,0,0-.26-.23.47.47,0,0,0-.3-.1h-.07l.07.1a.31.31,0,0,1,0,.1.3.3,0,0,1,0,.1A.5.5,0,0,1,85,98a.33.33,0,0,1,0,.15.31.31,0,0,1-.08.11.31.31,0,0,1-.13.06.34.34,0,0,1-.15,0,.53.53,0,0,1-.39-.13.54.54,0,0,1-.13-.4.51.51,0,0,1,0-.25.62.62,0,0,1,.15-.2.57.57,0,0,1,.21-.13.75.75,0,0,1,.26,0,.63.63,0,0,1,.34.08,1,1,0,0,1,.28.22,1.06,1.06,0,0,1,.22.29,1.87,1.87,0,0,1,.17.31V96.63H83.9l-.28-.28H86.4Z"/><path d="M78.31,102.2H77.7v2.86l0,0-.1-.11-.13-.16v-1.28a.21.21,0,0,0-.05-.11l-.1-.1-.13-.08-.12,0a.27.27,0,0,0-.18.07,1.17,1.17,0,0,0-.15.16l-.14.22-.14.21a1.33,1.33,0,0,1-.16.17.35.35,0,0,1-.19.06H76l-.07,0s0,0,0,0-.07,0-.12-.07a.91.91,0,0,1-.11-.16,1.18,1.18,0,0,1-.11-.19.9.9,0,0,1-.07-.14l.18-.17a.26.26,0,0,0,0,.1.67.67,0,0,0,.06.12.44.44,0,0,0,.08.11.14.14,0,0,0,.1,0,.12.12,0,0,0,.08,0,.41.41,0,0,0,.1-.09l.11-.12a1.47,1.47,0,0,1,.1-.13l.07-.11,0-.07a1.72,1.72,0,0,0,0-.29.61.61,0,0,0-.1-.18.38.38,0,0,0-.13-.09l-.14,0-.16,0-.17,0-.15-.07a.41.41,0,0,1-.14-.15.2.2,0,0,1-.08,0l-.09-.08-.1-.1-.07-.06h3Zm-.88,1v-1H76.17l.16.15.13.15a.6.6,0,0,1,.06.19.62.62,0,0,1,0,.23l.09-.08.1-.06a.33.33,0,0,1,.1-.06l.08,0a.25.25,0,0,1,.16.06l.15.13a1.83,1.83,0,0,1,.13.16Z"/><path d="M78.48,106l0,0,0,0-.09-.11a1.59,1.59,0,0,0-.13-.13l-.14-.13-.14-.13-.14-.1a.52.52,0,0,0-.12-.07l-.1.1-.11.09a.47.47,0,0,1-.12.07l-.16,0a.59.59,0,0,1-.19,0,.53.53,0,0,1-.17-.08.34.34,0,0,1-.12-.12.38.38,0,0,1,0-.19.48.48,0,0,1,0-.18.49.49,0,0,1,.12-.13.31.31,0,0,1,.15-.08.58.58,0,0,1,.19,0l.14,0,.13,0,.1.06,0,0s0,0,0,0v0a.6.6,0,0,0,0-.19,1.28,1.28,0,0,1,0-.19h0a.09.09,0,0,1,.08,0,.83.83,0,0,1,.08.12l.06.14a.58.58,0,0,1,0,.1s0,.06,0,.1a.59.59,0,0,0,0,.13l.12.1.14.14.15.16a1.09,1.09,0,0,1,.13.17.65.65,0,0,1,.09.16A.24.24,0,0,1,78.48,106Zm-1.3-.93h-.09l-.1,0-.07,0a.1.1,0,0,0,0,.08.11.11,0,0,0,0,.1.34.34,0,0,0,.12,0h.1l.12,0a.15.15,0,0,0,.09-.06.08.08,0,0,0,0-.07s0,0,0,0l-.07,0-.07,0Z"/><path d="M81,102.2h-.62v2.91l-.1-.14v-.08a1.89,1.89,0,0,0,0-.31,1.86,1.86,0,0,0-.1-.37,3,3,0,0,0-.15-.38,1.85,1.85,0,0,0-.21-.33,1.16,1.16,0,0,0-.26-.24.59.59,0,0,0-.31-.09h-.07l.07.1.06.1a.42.42,0,0,1,0,.1.53.53,0,0,1,0,.13.4.4,0,0,1,0,.15.25.25,0,0,1-.08.1.35.35,0,0,1-.12.07L79,104a.49.49,0,0,1-.53-.53.67.67,0,0,1,.2-.46,1,1,0,0,1,.22-.13.75.75,0,0,1,.26,0,.77.77,0,0,1,.34.08,1.18,1.18,0,0,1,.28.22,1.69,1.69,0,0,1,.22.29,2.29,2.29,0,0,1,.16.31V102.2h-1.9l-.27-.27h2.78Z"/><path d="M80.54,105.67s0,0,0,0l-.06,0a.19.19,0,0,1-.07-.06.19.19,0,0,0,0-.08.17.17,0,0,0,0-.07s0,0,0-.06l0-.08a1.35,1.35,0,0,0-.14-.3,1,1,0,0,0-.21-.28,1,1,0,0,0-.27-.19.73.73,0,0,0-.33-.08h-.06l-.05,0a.49.49,0,0,1,.14.18.43.43,0,0,1,.06.22.37.37,0,0,1-.09.26.3.3,0,0,1-.25.1.48.48,0,0,1-.18,0,.38.38,0,0,1-.15-.09.36.36,0,0,1-.1-.14.53.53,0,0,1,0-.19.76.76,0,0,1,.05-.27.56.56,0,0,1,.14-.2.53.53,0,0,1,.21-.11.77.77,0,0,1,.27,0,.67.67,0,0,1,.31.07.88.88,0,0,1,.29.18,1,1,0,0,1,.22.25,1,1,0,0,1,.14.29V104l.1.08.09.07.09.06Z"/><path d="M82.36,102.2h-.69v2.92l0,0-.09-.1-.13-.14v-2.09a.85.85,0,0,0,0-.23.48.48,0,0,0-.06-.18.41.41,0,0,0-.14-.12.41.41,0,0,0-.2,0l-.23-.27h.18a.58.58,0,0,1,.21,0,.31.31,0,0,1,.15.1,1,1,0,0,1,.12.19l.11.28s0-.1,0-.15,0-.11,0-.18,0-.16,0-.27,0-.23-.05-.39l.12.09s0,.07,0,.1l0,.06,0,.06.07.08h.42Z"/><path d="M84.86,105.22a2.52,2.52,0,0,0-.45-.41,3.08,3.08,0,0,0-.55-.33,5.09,5.09,0,0,0-.6-.25l-.61-.15-.31-.75a1.45,1.45,0,0,0,.84.25h.16l.19,0,.2-.06a1,1,0,0,0,.17-.1.34.34,0,0,0,.12-.12.3.3,0,0,0,0-.15.48.48,0,0,0,0-.18.37.37,0,0,0-.12-.13l-.16-.08-.18,0h-.06l-.06,0a.41.41,0,0,1,0,.18.52.52,0,0,1-.13.17.52.52,0,0,1-.17.12.31.31,0,0,1-.18,0,.36.36,0,0,1-.23-.08.26.26,0,0,1-.1-.23.37.37,0,0,1,.06-.21.75.75,0,0,1,.16-.15,1.39,1.39,0,0,1,.21-.11l.2-.08v0a.12.12,0,0,0-.06-.08l-.1,0H83s0,0,0,0h-.75l-.28-.27h2.74l.27.27H83.39s0,0,0,.06l0,0,0,0,0,0a1.11,1.11,0,0,1,.31.09,1,1,0,0,1,.26.18,1.2,1.2,0,0,1,.18.26.81.81,0,0,1,.06.31.56.56,0,0,1-.07.3.61.61,0,0,1-.19.2,1.1,1.1,0,0,1-.26.15l-.27.13.27.16.21.1.18.1.16.1.18.16c.07.06.14.14.23.23Z"/><path d="M77,115.57h-.52v1.19h-.28v-.39a.26.26,0,0,0,0-.11.6.6,0,0,0-.06-.11l-.09-.08a.2.2,0,0,0-.1,0,.48.48,0,0,0-.19,0s-.08,0-.1.09l-.06.1a.25.25,0,0,1,0,.09l-.05.07-.1.1a.36.36,0,0,1-.12.08.23.23,0,0,1-.14,0,.24.24,0,0,1-.18-.07.7.7,0,0,1-.13-.16.73.73,0,0,1-.07-.19l0-.14.19-.17a.58.58,0,0,0,0,.1.75.75,0,0,0,.07.12.44.44,0,0,0,.08.11.12.12,0,0,0,.09,0l.1,0a.15.15,0,0,0,.06,0,.21.21,0,0,0,0-.06.07.07,0,0,0,0-.06.38.38,0,0,0,0-.23.26.26,0,0,0-.14-.09.6.6,0,0,0-.2,0h-.22a.54.54,0,0,1-.21,0,.29.29,0,0,1-.16-.15l-.15-.08-.14-.09-.16-.11h2.77Zm-.8.54v-.54h-1l.12.07.1.07a.28.28,0,0,1,.09.1.54.54,0,0,1,.07.13.14.14,0,0,1,0-.06s0,0,.06-.06l.07,0h.08a.28.28,0,0,1,.13,0,.38.38,0,0,1,.09.09.41.41,0,0,1,.07.11Z"/><path d="M76.79,117.19a.69.69,0,0,1-.07.29,1.06,1.06,0,0,1-.19.23l-.25.19L76,118h0l0,0,0,0h0l.3.18.22.16a1.26,1.26,0,0,1,.17.13l.14.14.13.14.16.17,0,.25a2.58,2.58,0,0,0-.5-.4,2.86,2.86,0,0,0-.52-.27,4.76,4.76,0,0,0-.57-.19l-.62-.18-.27-.61a.61.61,0,0,0,.18.09.65.65,0,0,0,.2,0l.21,0h.21a.74.74,0,0,0,.28-.06,1,1,0,0,0,.27-.17.72.72,0,0,0,.21-.25.61.61,0,0,0,.08-.3.2.2,0,0,0,0-.09l-.06-.06-.08,0h-.07l-.09,0a.26.26,0,0,0-.1,0v0a.39.39,0,0,1,0,.18.76.76,0,0,1-.13.17l-.18.12a.46.46,0,0,1-.19,0l-.13,0-.11,0-.09-.09a.24.24,0,0,1,0-.12.4.4,0,0,1,.09-.27.83.83,0,0,1,.23-.19,1,1,0,0,1,.29-.11,1,1,0,0,1,.28,0,1.58,1.58,0,0,1,.32,0,.68.68,0,0,1,.24.12.47.47,0,0,1,.15.19A.7.7,0,0,1,76.79,117.19Z"/><path d="M78.42,115.57h-.68v2.92l0,0-.1-.1-.13-.15v-2.09a1.79,1.79,0,0,0,0-.23.48.48,0,0,0-.07-.18.28.28,0,0,0-.13-.11.36.36,0,0,0-.21,0l-.22-.28H77a.66.66,0,0,1,.21,0,.72.72,0,0,1,.15.11,1,1,0,0,1,.12.19,2.17,2.17,0,0,1,.1.28.76.76,0,0,0,0-.15,1.76,1.76,0,0,0,0-.19,1.59,1.59,0,0,1,0-.26c0-.11,0-.24,0-.4l.11.09a.87.87,0,0,0,0,.1l0,.07,0,.06.07.07h.42Z"/><path d="M78.72,115l0,0,0,.08,0,.08s0,0,0,.05h.52l.28.28h-.7v2.82l-.14-.13-.1-.1,0,0v-2.55h-.41l-.28-.28h.72l-.09-.08-.09-.1a.39.39,0,0,1-.08-.1.2.2,0,0,1,0-.11.64.64,0,0,1,0-.23,1.2,1.2,0,0,1,.13-.21,1.07,1.07,0,0,1,.19-.18,1.5,1.5,0,0,1,.23-.15,1.17,1.17,0,0,1,.24-.09,1,1,0,0,1,.23,0,1.77,1.77,0,0,1,.46.07,2.35,2.35,0,0,1,.44.17,2.65,2.65,0,0,1,.39.26,3.52,3.52,0,0,1,.35.31l.06.18a4.1,4.1,0,0,0-.64-.44,2.57,2.57,0,0,0-.52-.21,1.64,1.64,0,0,0-.43,0,1,1,0,0,0-.32.1.92.92,0,0,0-.25.17,1.4,1.4,0,0,0-.16.2,1,1,0,0,0-.09.17A.29.29,0,0,0,78.72,115Z"/><path d="M82.57,115.57H82v2.82l-.16-.13-.15-.16c0-.26,0-.5,0-.71v-.26a2,2,0,0,0,0-.23v-.23a.44.44,0,0,0,0-.14l-.08-.16a1.3,1.3,0,0,0-.1-.15l-.09-.09-.95,1-.4-.15a.6.6,0,0,1,.08-.08.94.94,0,0,0,.1-.1.61.61,0,0,0,.07-.1.27.27,0,0,0,0-.12v-.09l0-.1a.2.2,0,0,0-.06-.07.12.12,0,0,0-.09,0l-.09,0-.09,0-.1,0-.08,0-.08,0a.2.2,0,0,1-.07-.06.18.18,0,0,1-.05-.07.19.19,0,0,1,0-.08.19.19,0,0,1,0-.07l0-.08a2.56,2.56,0,0,1,.2-.26,1.16,1.16,0,0,1,.24-.2.9.9,0,0,1,.28-.13,1.15,1.15,0,0,1,.33,0,.81.81,0,0,1,.31,0,.93.93,0,0,1,.26.15,1.52,1.52,0,0,1,.22.22,2.54,2.54,0,0,1,.16.28l0,.08a1,1,0,0,1,0,.1s0,.07,0,.1a.94.94,0,0,0,0,.09,2.47,2.47,0,0,1-.05-.38c0-.13,0-.26,0-.38s0-.26,0-.39v-.38l.16.11v0s0,.07,0,.1a.14.14,0,0,0,0,.07l.06.06.08.05h.28Zm-1.43.27a.4.4,0,0,0-.19-.15.46.46,0,0,0-.23-.06.75.75,0,0,0-.37.09.57.57,0,0,0-.26.27h0a.32.32,0,0,1,.16,0,.37.37,0,0,1,.13.12.53.53,0,0,1,.08.17.33.33,0,0,1,0,.17Z"/><path d="M85.88,115.57H82.39l-.27-.28h3.46Zm-.49,1.53a.94.94,0,0,1-.11.38,1,1,0,0,1-.23.31,1.16,1.16,0,0,1-.32.2,1,1,0,0,1-.38.07A.94.94,0,0,1,84,118a1.09,1.09,0,0,1-.31-.18,1.79,1.79,0,0,1-.28-.27,2.62,2.62,0,0,1-.24-.34,2.75,2.75,0,0,1-.2-.38,3.29,3.29,0,0,1-.17-.39c0-.13-.1-.25-.14-.37s-.07-.23-.1-.33l.16.07.16.37c.06.14.13.27.2.4a3.68,3.68,0,0,0,.24.39,2.35,2.35,0,0,0,.3.33,1.15,1.15,0,0,0,.35.22,1,1,0,0,0,.41.09.66.66,0,0,0,.27-.06,1,1,0,0,0,.24-.15.79.79,0,0,0,.19-.22.72.72,0,0,0,.09-.27.61.61,0,0,0,0-.26.76.76,0,0,0-.13-.23.78.78,0,0,0-.2-.16.43.43,0,0,0-.22-.06h-.09l-.09,0a.36.36,0,0,1,.08.15.45.45,0,0,1,0,.16.37.37,0,0,1-.12.31.53.53,0,0,1-.32.09.46.46,0,0,1-.21,0l-.14-.11a.56.56,0,0,1-.09-.17.66.66,0,0,1,0-.21.6.6,0,0,1,0-.24.65.65,0,0,1,.15-.18.88.88,0,0,1,.21-.12.69.69,0,0,1,.25,0,1.2,1.2,0,0,1,.45.09,1.22,1.22,0,0,1,.38.26,1.13,1.13,0,0,1,.25.41A1.24,1.24,0,0,1,85.39,117.1Z"/><path d="M77.31,124.42a3.7,3.7,0,0,0-.46-.42,4.91,4.91,0,0,0-.55-.38,3.64,3.64,0,0,0-.59-.3,3,3,0,0,0-.61-.19l-.27-.95a.25.25,0,0,0,.1.14l.18.12.23.11.25.09.23.06.17,0,.17,0,.19-.08a.44.44,0,0,0,.15-.12.23.23,0,0,0,.06-.16v0l0-.05a.84.84,0,0,0-.2-.28,1.05,1.05,0,0,0-.27-.2,1.59,1.59,0,0,0-.29-.15l-.26-.13a.72.72,0,0,1-.19-.14.21.21,0,0,1-.08-.17.43.43,0,0,1,0-.11.3.3,0,0,1,0-.1l.11-.08a.33.33,0,0,1,.13,0,.28.28,0,0,1,.22.08.36.36,0,0,1,.08.22l.35.18a3.55,3.55,0,0,1,.31.23,1.29,1.29,0,0,1,.22.3.79.79,0,0,1,.09.38.81.81,0,0,1-.06.33.58.58,0,0,1-.15.25,1.08,1.08,0,0,1-.24.18,1.52,1.52,0,0,1-.32.12,2.2,2.2,0,0,1,.32.21,3.55,3.55,0,0,1,.31.23l.3.26.28.25Z"/><path d="M77.61,122.52a1,1,0,0,1,.09-.41,1,1,0,0,1,.25-.32,1.33,1.33,0,0,1,.35-.2,1.2,1.2,0,0,1,.42-.07,1.22,1.22,0,0,1,.43.08,1,1,0,0,1,.35.23,1.2,1.2,0,0,1,.23.34,1.22,1.22,0,0,1,.08.43,1,1,0,0,1-.09.42,1.42,1.42,0,0,1-.25.34,1.15,1.15,0,0,1-.35.22,1.07,1.07,0,0,1-.86,0,1.12,1.12,0,0,1-.35-.25,1.09,1.09,0,0,1-.22-.36A1.12,1.12,0,0,1,77.61,122.52Zm1.86-.16a.54.54,0,0,0,0-.22.45.45,0,0,0-.29-.29.56.56,0,0,0-.23,0,.81.81,0,0,0-.37.09.87.87,0,0,0-.31.23,1,1,0,0,0-.22.33.8.8,0,0,0-.08.37.45.45,0,0,0,0,.2.48.48,0,0,0,.28.28.49.49,0,0,0,.21,0,.94.94,0,0,0,.36-.08,1.46,1.46,0,0,0,.33-.22,1.44,1.44,0,0,0,.23-.32A.81.81,0,0,0,79.47,122.36Z"/><path d="M80.93,124l-.17,0a.7.7,0,0,1-.17-.09.49.49,0,0,1-.13-.12.34.34,0,0,1,0-.17.36.36,0,0,1,.06-.2.58.58,0,0,1,.14-.17.65.65,0,0,1,.4-.15h.16a.4.4,0,0,1,.15,0,.42.42,0,0,1,.14.06.53.53,0,0,1,.12.1.76.76,0,0,0,.12-.19.46.46,0,0,0,0-.21.48.48,0,0,0-.1-.27l-.24-.29c-.1-.11-.21-.21-.32-.31l-.32-.31a1.9,1.9,0,0,1-.24-.28.42.42,0,0,1-.1-.25.35.35,0,0,1,0-.14.41.41,0,0,1,.07-.11l.11-.08a.31.31,0,0,1,.13,0,.21.21,0,0,1,.12,0,.23.23,0,0,1,.1.07l.06.1a.5.5,0,0,1,0,.12s0,.07,0,.11a.3.3,0,0,0,0,.1l.22.21.23.24a2.47,2.47,0,0,1,.21.27,1.67,1.67,0,0,1,.18.28,1.36,1.36,0,0,1,.13.3,1,1,0,0,1,0,.3.76.76,0,0,1-.1.39,1.28,1.28,0,0,1-.26.35,1.41,1.41,0,0,1-.36.24A.93.93,0,0,1,80.93,124Z"/><path d="M85.2,121.94a1.66,1.66,0,0,0-.38.15,2,2,0,0,0-.37.24,1.5,1.5,0,0,0-.29.33.77.77,0,0,0-.11.39.82.82,0,0,0,0,.28.69.69,0,0,0,.14.22.73.73,0,0,0,.22.16,1.08,1.08,0,0,0,.27.1,1.14,1.14,0,0,1-.26.09l-.27,0a2.12,2.12,0,0,1-.57-.08,1.32,1.32,0,0,1-.49-.24,1.16,1.16,0,0,1-.35-.41,1.2,1.2,0,0,1-.07-.92,1.31,1.31,0,0,1,.15-.37,2.54,2.54,0,0,1,.23-.34,2.76,2.76,0,0,1,.29-.3,2.1,2.1,0,0,1,.33-.22,1.12,1.12,0,0,1,.35-.12l.45.11-.1,0-.08.09a.6.6,0,0,0-.06.11.5.5,0,0,0,0,.12.21.21,0,0,0,0,.12.2.2,0,0,0,.08.08.29.29,0,0,0,.1,0l.12,0h.16a.58.58,0,0,0,.12.1l.14.09A.51.51,0,0,0,85.2,121.94Zm-.78,0a.65.65,0,0,1-.21-.06.47.47,0,0,1-.13-.11.51.51,0,0,1-.09-.16l-.06-.2a1.24,1.24,0,0,0-.35.23,1.81,1.81,0,0,0-.29.33,1.66,1.66,0,0,0-.2.4,1.23,1.23,0,0,0-.07.42.69.69,0,0,0,.09.36.92.92,0,0,0,.24.28,1.29,1.29,0,0,0,.32.19,1.61,1.61,0,0,0,.36.1,1.08,1.08,0,0,1-.24-.32,1,1,0,0,1-.08-.38,1.27,1.27,0,0,1,.05-.34,1.23,1.23,0,0,1,.14-.31,1.1,1.1,0,0,1,.23-.25A.88.88,0,0,1,84.42,121.92Z"/><path class="cls-6" d="M80,87.64h-.84C75.74,84.48,69,86.2,69,86.2a10.8,10.8,0,0,0-.77-2h1v1H90.82v-1h1a10.8,10.8,0,0,0-.77,2s-6.75-1.72-10.2,1.44h-.92"/><rect class="cls-6" x="77.51" y="70.64" width="6.28" height="0.75" transform="translate(6.85 149.12) rotate(-87.99)"/><polygon class="cls-6" points="82.28 74.18 81.53 74.09 82.02 70.05 82.76 70.14 82.28 74.18"/><rect class="cls-6" x="80.55" y="70.99" width="6.28" height="0.75" transform="translate(-2.59 139.57) rotate(-78.78)"/><rect class="cls-6" x="82.93" y="72.43" width="4.27" height="0.75" transform="translate(-8.93 133.64) rotate(-73.47)"/><rect class="cls-6" x="83.89" y="71.98" width="6.29" height="0.75" transform="translate(-12.43 126.36) rotate(-68.24)"/><rect class="cls-6" x="86.03" y="73.53" width="4.07" height="0.75" transform="translate(-17.58 119.25) rotate(-63.23)"/><rect class="cls-6" x="86.78" y="73.43" width="6.29" height="0.75" transform="matrix(0.52, -0.85, 0.85, 0.52, -20.04, 111.77)"/><polygon class="cls-6" points="89.73 77.57 89.13 77.12 91.68 73.7 92.28 74.15 89.73 77.57"/><rect class="cls-6" x="89.56" y="75.52" width="6.28" height="0.75" transform="translate(-25.77 93.69) rotate(-47.85)"/><rect class="cls-6" x="91.1" y="77.33" width="4.07" height="0.75" transform="translate(-27.98 84.26) rotate(-42.94)"/><rect class="cls-6" x="91.75" y="77.86" width="6.28" height="0.75" transform="translate(-28.06 75.37) rotate(-38.17)"/><polygon class="cls-6" points="93.41 81.7 93 81.07 96.58 78.75 96.99 79.38 93.41 81.7"/><rect class="cls-6" x="93.66" y="80.82" width="6.29" height="0.75" transform="translate(-26.54 53.8) rotate(-27.47)"/><rect class="cls-6" x="94.54" y="82.67" width="4.07" height="0.75" transform="translate(-24.46 43.39) rotate(-22.55)"/><rect class="cls-6" x="78.97" y="67.87" width="0.75" height="6.28" transform="translate(-2.4 2.78) rotate(-1.98)"/><polygon class="cls-6" points="77.72 74.18 77.24 70.14 77.98 70.05 78.47 74.09 77.72 74.18"/><rect class="cls-6" x="75.93" y="68.22" width="0.75" height="6.28" transform="translate(-12.47 16.28) rotate(-11.26)"/><rect class="cls-6" x="74.56" y="70.67" width="0.75" height="4.27" transform="matrix(0.96, -0.28, 0.28, 0.96, -17.57, 24.24)"/><rect class="cls-6" x="72.59" y="69.21" width="0.75" height="6.29" transform="translate(-21.66 32.28) rotate(-21.81)"/><polygon class="cls-6" points="72.51 75.89 70.69 72.25 71.35 71.91 73.18 75.55 72.51 75.89"/><rect class="cls-6" x="69.7" y="70.67" width="0.75" height="6.29" transform="translate(-28.29 47.7) rotate(-31.62)"/><polygon class="cls-6" points="70.27 77.57 67.72 74.15 68.32 73.7 70.87 77.12 70.27 77.57"/><rect class="cls-6" x="66.92" y="72.75" width="0.75" height="6.28" transform="translate(-33.52 64.76) rotate(-42.14)"/><rect class="cls-6" x="66.49" y="75.66" width="0.75" height="4.07" transform="translate(-35.57 73.68) rotate(-47.04)"/><rect class="cls-6" x="64.73" y="75.1" width="0.75" height="6.28" transform="translate(-36.64 81.11) rotate(-51.85)"/><polygon class="cls-6" points="66.59 81.7 63.01 79.38 63.42 78.75 67 81.07 66.59 81.7"/><rect class="cls-6" x="62.82" y="78.06" width="0.75" height="6.29" transform="translate(-38 99.83) rotate(-62.54)"/><rect class="cls-6" x="63.05" y="81.01" width="0.75" height="4.07" transform="translate(-37.61 109.69) rotate(-67.4)"/><path class="cls-3" d="M45,124.89l-2.43-.3a18.53,18.53,0,0,0-2.76-.13,3,3,0,0,1,.72.41c1.16,0,2.17.16,3.22.28l0,.28a9.15,9.15,0,0,0-3.13,1l.6.77a3,3,0,0,1,1.21.45,2.22,2.22,0,0,1,.81.87l.36.74.16.18.54-4.2,1.19.16Zm-2.69,3.84a.41.41,0,0,0,.13-.34.49.49,0,0,0-.16-.26.61.61,0,0,0-.32-.13.46.46,0,0,0-.37.13.35.35,0,0,0-.12.33.48.48,0,0,0,.16.27.51.51,0,0,0,.31.13A.39.39,0,0,0,42.27,128.73Zm-.7-2.06a6.17,6.17,0,0,1,2-.64l-.28,2.3A3.21,3.21,0,0,0,41.57,126.67Z"/><path class="cls-3" d="M47.27,125.23l-.76-.12a1.08,1.08,0,0,1-.13-.19,1.41,1.41,0,0,1-.07-.47l-.18-.16a6.55,6.55,0,0,0-.07.68,8.9,8.9,0,0,0,0,1.16,3.55,3.55,0,0,0-.15-.53,1,1,0,0,0-.69-.68,4.41,4.41,0,0,0-.81-.11l.46.49.14,0a1,1,0,0,1,.75.5.66.66,0,0,1,.08.45l-.46,3.09.41.5.65-4.33,1.28.2Z"/><path class="cls-3" d="M53,125.89a4.59,4.59,0,0,0-.71-.9,4.43,4.43,0,0,0-2.1-1.15,2.39,2.39,0,0,0-.77-.07,2,2,0,0,0-1.43.63.64.64,0,0,0-.16.33.26.26,0,0,0,0,.2l.39.47-1.32-.22.44.5.74.12-.66,3.77.39.49.8-4.16,1.32.31-.43-.54-1-.22-.13-.39c0-.08.13-.24.46-.45a1.5,1.5,0,0,1,.3-.16l.29-.07a2.55,2.55,0,0,1,1.13,0,3.32,3.32,0,0,1,1.74,1l.69.79Z"/><path class="cls-3" d="M55.67,127.63a38.88,38.88,0,0,0-6.51-2l.44.53c.69.15,1.38.33,2,.54l-.34.15a2.07,2.07,0,0,0-.5.34.86.86,0,0,0-.2.55,1.18,1.18,0,0,0,.39.87,1.11,1.11,0,0,0,.45.25,2.52,2.52,0,0,0,.8.08h.12a.19.19,0,0,1,.15.2.38.38,0,0,1,0,.21c-.06.18-.24.27-.54.28a2.55,2.55,0,0,1-.7-.08,1.16,1.16,0,0,1-.51-.28,2.16,2.16,0,0,1-.65-1.07,2.62,2.62,0,0,1,0-1.42,1.14,1.14,0,0,0-.25-.2,4.83,4.83,0,0,0-.21,1.6,3.16,3.16,0,0,0,.27,1,2,2,0,0,0,1.19,1.09,1.48,1.48,0,0,0,.58.08,1.24,1.24,0,0,0,.91-.47.84.84,0,0,0,.19-.5,1.33,1.33,0,0,0-.17-.75c-.1-.21-.17-.32-.21-.32s0,0-.06-.05h-.26a3.65,3.65,0,0,1-.89,0c-.24-.08-.33-.2-.28-.39a1.2,1.2,0,0,1,.46-.47.81.81,0,0,1,.6-.21l0,0,.19.39a1.82,1.82,0,0,0,.74.65,6.22,6.22,0,0,0,.94.46,2.87,2.87,0,0,0-.72,1.05,3.86,3.86,0,0,0-.15.91l-.07.8s0,.07.16.14l.21.13h0a2.8,2.8,0,0,1,.09-1.25,2.31,2.31,0,0,1,.22-.45,1.58,1.58,0,0,1,.61-.68,2.16,2.16,0,0,1,.62-.32c-.19-.34-.36-.63-.49-.88a6.66,6.66,0,0,1-.94-.13,3,3,0,0,1-.63-.31c-.3-.2-.43-.35-.39-.47a.16.16,0,0,1,.12-.1l.35,0c1,.35,2,.72,3,1.14Z"/><path class="cls-3" d="M60.08,129.9a28.18,28.18,0,0,0-4.72-2.39l.32.58a23.11,23.11,0,0,1,3.11,1.55l-.15.25a10.13,10.13,0,0,0-1.9-.33,7.5,7.5,0,0,0-1.42.08l.29,1a2.44,2.44,0,0,1,.92.83,2.81,2.81,0,0,1,.45,1.8l.06.4,2.18-3.73,1.07.63Zm-3.88.36a6.62,6.62,0,0,1,2.11.2l-1.1,1.9A3.5,3.5,0,0,0,56.2,130.26Z"/><path class="cls-3" d="M64.89,132.68l-.3-.17-.26-.14-.11-.17a.5.5,0,0,1,0-.35v0l-.15-.27-.6,1.18-.4,1.07a3,3,0,0,0,.06-.72,2.11,2.11,0,0,0-1-1.86,2.25,2.25,0,0,0-2.08-.1.43.43,0,0,0-.19.14.34.34,0,0,0,0,.28.38.38,0,0,0,.19.23c.38.1.58.16.62.18a.31.31,0,0,1,.13.4c0,.17-.13.26-.25.28l-.57.11.53.57,2.19-.38a1.09,1.09,0,0,1,.14.51,3.26,3.26,0,0,1,0,.47l-1.12,1.84a4.27,4.27,0,0,0,.28.66l2-3.71,1.09.59Zm-3.83-.12a.14.14,0,0,0,.06-.07.74.74,0,0,0,.05-.52.61.61,0,0,0-.35-.4,1.2,1.2,0,0,1,1.25.12.91.91,0,0,1,.35.31,2.83,2.83,0,0,1,.15.32Z"/><path class="cls-3" d="M62.31,137.13a3.34,3.34,0,0,0-.27-.54.93.93,0,0,1,.07-.2l.07-.12a.92.92,0,0,0,0-.39c0-.2-.06-.32-.15-.37h0l-.11.21-.14.29c0,.07-.1.09-.13.05a1.71,1.71,0,0,0-.54-.56,1.06,1.06,0,0,0-.69-.16.52.52,0,0,0-.46.35.53.53,0,0,0,.11.51,1.47,1.47,0,0,0,.47.41,1.1,1.1,0,0,0,.48.14l.56-.06s.11.14.28.44a7.56,7.56,0,0,1,.54,1.15.09.09,0,0,0,0,.06.08.08,0,0,0,.08,0,0,0,0,0,0,0,0A1.88,1.88,0,0,0,62.31,137.13ZM61,136.28a1.32,1.32,0,0,1-.41-.13q-.26-.15-.15-.33t.51,0c.22.11.34.24.36.37S61.18,136.32,61,136.28Z"/><path class="cls-3" d="M68.92,134.53a41.09,41.09,0,0,1-4.14-1.92l.24.61c.87.45,1.76.87,2.68,1.26l-.11.25a16.6,16.6,0,0,0-3.2-.11l.26,1a3.53,3.53,0,0,1,1,.87,2.38,2.38,0,0,1,.56,1.09l.17.82.12.22,1.63-3.91,1.07.44Zm-3.68,2.93a.34.34,0,0,0,.23-.28.43.43,0,0,0-.07-.3.66.66,0,0,0-.28-.24.56.56,0,0,0-.42,0,.33.33,0,0,0-.24.26.43.43,0,0,0,.08.32.68.68,0,0,0,.28.25A.48.48,0,0,0,65.24,137.46Zm0-2.19a8.5,8.5,0,0,1,1-.06c.37,0,.77,0,1.17.08l-.92,2.13A3.74,3.74,0,0,0,65.23,135.27Z"/><path class="cls-3" d="M68.78,140.22a1,1,0,0,0,.6-.54.72.72,0,0,0-.47-1.05c-.38-.15-.63-.07-.76.24s0,.43.36.58l.33.09c.06,0,.08.06.07.13s-.15.3-.41.41a1.88,1.88,0,0,1-.68.14l0,.18A1.78,1.78,0,0,0,68.78,140.22Z"/><path class="cls-3" d="M78.85,137.41a21.62,21.62,0,0,1-5-1.07l.31.48.11.09a.79.79,0,0,0,.3.42,2.83,2.83,0,0,0,.51.19.81.81,0,0,1,.65.7,1.27,1.27,0,0,1,0,.42l-.53.37c-.26.17-.45.24-.56.21a.32.32,0,0,1-.18-.13,1,1,0,0,1-.1-.27.6.6,0,0,1,0-.27l-.4.16.11.36c.13.39.27.6.41.66s.15.12.38.18l.19,0a3.19,3.19,0,0,0,1.28-.79.66.66,0,0,1,1,.06.59.59,0,0,1,.23.36l-.28,1.9.5.55.49-4.26c.37,0,.74.08,1.12.1Zm-1.79,1.14a.69.69,0,0,0-.37-.25.66.66,0,0,0-.36.08,1.13,1.13,0,0,1-.35.09.53.53,0,0,0,0-.15.84.84,0,0,0-.17-.77l-.22-.25c.7.17,1.39.31,2.08.42l-.21,1.45C77.27,138.85,77.13,138.64,77.06,138.55Z"/><path class="cls-3" d="M83.44,137.4a43.52,43.52,0,0,1-4.85,0l.43.46.47,0-.08,2.39.69.59a3.61,3.61,0,0,1,1.05-1.17,3,3,0,0,1,1-.47,4.42,4.42,0,0,0-.14,1.1,4.79,4.79,0,0,0,.18,1.21l.15.49.37.14a8,8,0,0,1-.19-.89c0-.12,0-.25,0-.38a4.09,4.09,0,0,1,.62-2l-.87-.52a5.76,5.76,0,0,0-1.36.64l-.53.39a2.64,2.64,0,0,1-.35.24l0-1.75,2,0c.64,0,1.29,0,1.93-.08Z"/><path class="cls-3" d="M87.59,136.88a33.52,33.52,0,0,1-4.46.54l.51.39c1-.07,2-.17,2.92-.32l0,.27a16.56,16.56,0,0,0-2.77,1.58l.72.69a3.58,3.58,0,0,1,1.33.19,2.63,2.63,0,0,1,1.06.63l.58.61.23.12L87,137.41l1.11-.21Zm-1.54,4.44a.37.37,0,0,0,0-.36.45.45,0,0,0-.23-.22.72.72,0,0,0-.36-.06.54.54,0,0,0-.37.2.33.33,0,0,0-.07.35.47.47,0,0,0,.24.24.74.74,0,0,0,.36.06A.52.52,0,0,0,86.05,141.32Zm-1.17-1.87c.36-.26.62-.45.78-.54.32-.19.67-.38,1-.55l.36,2.29A3.93,3.93,0,0,0,84.88,139.45Z"/><path class="cls-3" d="M94,137.59a25.07,25.07,0,0,1-2.38.87l.16.5a24.44,24.44,0,0,0,2.43-.89Z"/><path class="cls-3" d="M100,130.8c-1.64,1.11-3.11,2.3-4.58,3.22l.65.09c1-.67,2-1.45,3.12-2.23l.68.94a1.12,1.12,0,0,0-.44-.17l-.25-.05a.83.83,0,0,0-.47.16.6.6,0,0,0-.21.37.46.46,0,0,0,0,.39l-.26-.05a1.38,1.38,0,0,0-.94.28,1,1,0,0,0-.43.76,1.16,1.16,0,0,0,.2.79.88.88,0,0,0,.22.25.93.93,0,0,0,.76.25,1.76,1.76,0,0,0,.88-.34.78.78,0,0,0,.38-.78c0-.08-.12-.18-.31-.29a.54.54,0,0,0-.64,0,.58.58,0,0,0-.26.34.36.36,0,0,0,0,.36.48.48,0,0,0,.31.18c-.4.21-.7.17-.89-.11a.62.62,0,0,1-.06-.57,1,1,0,0,1,.39-.54,1.13,1.13,0,0,1,.71-.24,1.49,1.49,0,0,1,.41.09c.13,0,.2.07.2.1l.14-.18-.16-.14a.41.41,0,0,1-.13-.28.33.33,0,0,1,.13-.3.65.65,0,0,1,.48-.16.49.49,0,0,1,.41.19l1.35,1.88.64,0-2.47-3.5,1.06-.73Z"/><path class="cls-3" d="M106.54,127.58a34.6,34.6,0,0,0-6.81,3.4l.68.05.69-.45a.52.52,0,0,1,.28-.05.3.3,0,0,1,.21.08,1.57,1.57,0,0,1-.25.27.48.48,0,0,0,0,.6c.2.32.48.32.85.08s.44-.43.3-.7l-.06-.09a.77.77,0,0,1,.48-.11.37.37,0,0,1,.33.22.34.34,0,0,1,0,.2.66.66,0,0,0-.36.31.43.43,0,0,0,0,.41.53.53,0,0,0,.27.24.44.44,0,0,0,.37,0l.12-.08a.62.62,0,0,0,.24-.29.39.39,0,0,0,0-.33,1,1,0,0,1,.89.25.63.63,0,0,0-.24.38.52.52,0,0,0,0,.41.52.52,0,0,0,.33.24.62.62,0,0,0,.44,0,.66.66,0,0,0,.28-.24.51.51,0,0,0,0-.59,1.63,1.63,0,0,1,.79-.07,1.41,1.41,0,0,1,.68.26l.49.37.31,0-1.75-4.16,1-.41Zm-2.8,3.38a1.16,1.16,0,0,0-.46-.41,1.41,1.41,0,0,0-1.1-.17c-.11,0-.17,0-.2,0a.82.82,0,0,0-.29-.14l.78-.4a1.3,1.3,0,0,0,.56.29,1.59,1.59,0,0,0,1.1,0l.45,1A4.63,4.63,0,0,0,103.74,131Zm0-1.21a.91.91,0,0,1-.43.1c-.18,0-.3-.06-.34-.15s0-.07,0-.1l.77-.35.16.35A.53.53,0,0,1,103.69,129.75Zm2.17,1.5a2.89,2.89,0,0,0-.63.11l-.66-1.47a1.41,1.41,0,0,1,.36-.24.77.77,0,0,1,.51-.05,1.45,1.45,0,0,1,.29.21.44.44,0,0,0-.4,0,.81.81,0,0,0-.2.11s-.08.08-.1.19a.45.45,0,0,0,.67.43.58.58,0,0,0,.28-.26.62.62,0,0,0,0-.6.74.74,0,0,0-.13-.22.88.88,0,0,0-.56-.3,1.32,1.32,0,0,0-.73.11l-.24.14-.17-.38,1.52-.66,1.36,3.21A2.51,2.51,0,0,0,105.86,131.25Z"/><path class="cls-3" d="M108.69,126.71l-.86.34-.27-.31a1.76,1.76,0,0,0-.56-.44,2.19,2.19,0,0,0-.68-.27,3.31,3.31,0,0,0-.95-.06,5.71,5.71,0,0,0-1.3.32c-.09,0-.2.1-.29.16a4.86,4.86,0,0,0-.88.65,1.53,1.53,0,0,0-.25.34.36.36,0,0,0,0,.37.56.56,0,0,0,.55.32A2.13,2.13,0,0,0,104,128l.8-.31c.4-.15.66-.2.77-.14a.2.2,0,0,1,.13.1q0,.12-.12.36l.5-.21a.53.53,0,0,0-.06-.24c-.19-.44-.67-.55-1.43-.31-.08,0-.47.17-1.18.46-.3.12-.48.12-.53,0a.13.13,0,0,1,0-.12,2.51,2.51,0,0,1,1.16-.84,4.41,4.41,0,0,1,1.79-.4,1.66,1.66,0,0,1,.73.17,1.79,1.79,0,0,1,.65.41l.19.27-1.17.48.68.18.59-.25,1.45,3.59.61.2-1.59-4,1.33-.53Z"/><path class="cls-3" d="M114.48,124.91l-.4.06-.35.07-.23-.05a.4.4,0,0,1-.23-.28l0,0-.36-.08.4,1.26.45,1a2.33,2.33,0,0,0-.47-.56,2,2,0,0,0-1-.52,2.17,2.17,0,0,0-1.21.07,2.2,2.2,0,0,0-1.43,1.55.43.43,0,0,0,0,.25.34.34,0,0,0,.22.17.35.35,0,0,0,.3,0c.31-.23.49-.35.53-.37a.31.31,0,0,1,.4.16.35.35,0,0,1,0,.37l-.27.51.77-.05c.37-.63.74-1.27,1.16-1.89a.85.85,0,0,1,.48.24,3.89,3.89,0,0,1,.31.37l.48,2.1.53.32-.91-4.14c.47-.1.94-.17,1.4-.23Zm-3.07,2.7a.24.24,0,0,0,0-.1.82.82,0,0,0-.37-.37.62.62,0,0,0-.53,0,1.21,1.21,0,0,1,.91-.89,1,1,0,0,1,.49-.07l.35.1Z"/><path class="cls-3" d="M115.14,130a1.78,1.78,0,0,0-.42-.28.89.89,0,0,1-.06-.2l0-.14a.91.91,0,0,0-.2-.32c-.11-.15-.21-.21-.29-.19h0l.06.23.09.31c0,.09,0,.13,0,.12a1,1,0,0,0-.63-.05.92.92,0,0,0-.53.39.55.55,0,0,0,0,.57.47.47,0,0,0,.42.26,1.19,1.19,0,0,0,.53,0,.55.55,0,0,0,.3-.21l.23-.38s.13,0,.36.18a4.09,4.09,0,0,1,.83.63.05.05,0,0,0,.05,0s0,0,0-.05a.1.1,0,0,0,0,0A1.67,1.67,0,0,0,115.14,130Zm-1.12.15a.66.66,0,0,1-.29.18c-.16.05-.27,0-.32-.11s.07-.25.31-.34.33-.06.42,0S114.15,130.07,114,130.17Z"/><path class="cls-3" d="M119.33,124.52a45,45,0,0,0-5,.41l.63.33c1.1-.14,2.15-.21,3.19-.26l0,.28a9.15,9.15,0,0,0-2.91,1.49l.72.67a2.92,2.92,0,0,1,1.27.23,2.29,2.29,0,0,1,1,.72l.48.67.19.14-.19-4.23,1.19,0Zm-2,4.25a.38.38,0,0,0,.07-.35.43.43,0,0,0-.21-.23.53.53,0,0,0-.32-.08.46.46,0,0,0-.36.19.37.37,0,0,0-.06.35.59.59,0,0,0,.21.24.55.55,0,0,0,.33.07A.43.43,0,0,0,117.35,128.77Zm-1-1.91c.36-.25.62-.43.79-.52a10.09,10.09,0,0,1,1.1-.46l.12,2.32A3.24,3.24,0,0,0,116.31,126.86Z"/><path class="cls-5" d="M24.57,67.57a2.35,2.35,0,0,1-.57,2,3.69,3.69,0,0,1-.75.58c-.26.15-.38.3-.38.45a1.3,1.3,0,0,0,.45.76,2.55,2.55,0,0,0,.86.62l1.56.55c.49.21.75.47.77.79a1.26,1.26,0,0,1-.66,1.09,3.67,3.67,0,0,1-1.91.61,7.61,7.61,0,0,1-1.25-.07q-.29,0-.3-.12c0-.06.1-.1.33-.1a6,6,0,0,1,.6,0h.42A3.5,3.5,0,0,0,25,74.35c.52-.24.77-.52.74-.86a.81.81,0,0,0-.55-.69L24,72.36a4.79,4.79,0,0,1-1.45-.82,1.7,1.7,0,0,1-.69-1.09c0-.18.12-.39.42-.61.47-.34.72-.53.76-.57a2,2,0,0,0,.57-1.64Z"/><path class="cls-5" d="M19.79,70.82a1.39,1.39,0,0,1,.41.12c.18.09.27.18.26.27a3,3,0,0,1-.34.48c-.24.3-.4.45-.48.44a4.92,4.92,0,0,1-.82-.42,3.63,3.63,0,0,0,.57-.62C19.54,70.9,19.67,70.81,19.79,70.82Z"/><path class="cls-5" d="M19.57,69.39a1.13,1.13,0,0,1,.37.12,1.37,1.37,0,0,1,.43.29l-.37.52c-.18.24-.31.36-.39.35a2.59,2.59,0,0,1-.38-.18c-.23-.12-.34-.21-.33-.25C19.24,69.66,19.47,69.38,19.57,69.39Z"/><path class="cls-5" d="M48.53,23.27c.16.18.21.34.13.5a.57.57,0,0,1-.31.32,1,1,0,0,1-.67-.12.45.45,0,0,1-.28.66.65.65,0,0,1-.51,0,3,3,0,0,1-.86-1c-.07-.13-.09-.2,0-.22s.17,0,.28.1a2.92,2.92,0,0,1,.49.65.29.29,0,0,0,.17.08.36.36,0,0,0,.21,0c.25-.1.34-.21.27-.32a2,2,0,0,0-.31-.38l-.25-.24q-.18-.22,0-.3c.07,0,.15,0,.23.1a2.13,2.13,0,0,0,.21.26,2.8,2.8,0,0,0,.4.23.69.69,0,0,0,.41.06c.11,0,.18-.06.18-.13-.16-.1-.41-.26-.75-.5a.35.35,0,0,1-.08-.22c0-.11,0-.18,0-.19s.16,0,.29.16A4.53,4.53,0,0,1,48.53,23.27Z"/><path class="cls-5" d="M20.93,61.51a.53.53,0,0,1,.44.21.44.44,0,0,1,.06.34c0,.1-.19.19-.46.27q.45.16.33.51a.45.45,0,0,1-.28.26A3.55,3.55,0,0,1,19.8,63c-.14,0-.2-.07-.19-.11s.1-.09.24-.08a3.4,3.4,0,0,1,.75.11s.08,0,.15,0a.26.26,0,0,0,.12-.11c.06-.18,0-.28-.09-.31a2,2,0,0,0-.45,0H20c-.17,0-.24-.08-.21-.17s.08-.07.2-.05l.3,0a2.09,2.09,0,0,0,.39-.08.45.45,0,0,0,.28-.17c.05-.07.05-.12,0-.16l-.78.1a.51.51,0,0,1-.21-.08c-.09-.06-.13-.1-.11-.13s.11-.07.28,0A4.4,4.4,0,0,1,20.93,61.51Z"/><path class="cls-5" d="M81.16,16.36a.44.44,0,0,1-.09.5.77.77,0,0,1-.43.2.85.85,0,0,1-.58-.31.52.52,0,0,1-.55.53.64.64,0,0,1-.47-.15,2.37,2.37,0,0,1-.36-1.2c0-.15,0-.22.06-.22s.17,0,.22.18a2.92,2.92,0,0,1,.18.76s0,.07.12.12a.37.37,0,0,0,.2.06c.27,0,.4-.09.38-.21a1.37,1.37,0,0,0-.12-.45c-.08-.19-.12-.29-.13-.3,0-.18,0-.27.14-.28s.13.05.16.16a2.48,2.48,0,0,0,.09.31,2.38,2.38,0,0,0,.27.33.57.57,0,0,0,.35.18c.12,0,.2,0,.23-.07a7.05,7.05,0,0,1-.48-.69.39.39,0,0,1,0-.23c0-.11.08-.16.13-.16s.13.07.19.24A3.73,3.73,0,0,1,81.16,16.36Z"/><path class="cls-5" d="M24.84,61.9a1.41,1.41,0,0,1-.25.55A1.5,1.5,0,0,1,24,63a.83.83,0,0,1-.57.07,3,3,0,0,1,.73.62,1.36,1.36,0,0,1,.23,1l-1-.12a1.78,1.78,0,0,0-.06-1,.83.83,0,0,0-.27-.26,2.83,2.83,0,0,1-.3-.22q-.39-.42-.12-.39a1,1,0,0,1,.25.09,1.63,1.63,0,0,0,.26-.09,1.2,1.2,0,0,0,.4-.38,1.31,1.31,0,0,0,.27-.5Z"/><path class="cls-5" d="M26,63.37a1,1,0,0,1,.36.21c.15.13.21.23.17.31a1.59,1.59,0,0,1-.38.33c-.26.2-.43.29-.51.26A3.38,3.38,0,0,1,25,63.9a3.75,3.75,0,0,0,.66-.41A.41.41,0,0,1,26,63.37Z"/><path class="cls-5" d="M26.2,62a1.78,1.78,0,0,1,.32.2,1.13,1.13,0,0,1,.34.38l-.5.4c-.23.17-.38.24-.45.22-.41-.31-.6-.49-.57-.56C25.82,62.18,26.11,62,26.2,62Z"/><path class="cls-5" d="M25.18,49.91a25,25,0,0,1-1.66,2.84,13.57,13.57,0,0,0-1.2,2,1.59,1.59,0,0,0,.15,1.32,1.73,1.73,0,0,0,1.05.8,4.63,4.63,0,0,0,1.37-.09c-.09.34-.18.64-.26.88l.94.26a8.29,8.29,0,0,0,.34-1.25,1.78,1.78,0,0,1,.35,0c.14.06.22.06.25,0s0-.07-.07-.13a.92.92,0,0,0-.47-.24,14.1,14.1,0,0,0,0-3.55,6.14,6.14,0,0,1,0-2.36c0-.05-.09-.16-.35-.33S25.2,49.88,25.18,49.91ZM25,56.28a12.09,12.09,0,0,0-1.4.26h-.07c-.12,0-.23-.15-.34-.36a.82.82,0,0,1-.1-.52c0-.15.08-.29.13-.43a6.69,6.69,0,0,1,.93-1.67,13,13,0,0,0,.94-1.45A14.48,14.48,0,0,1,25,56.28Z"/><path class="cls-5" d="M110.55,30.11l-.09.39q-.08.3-.21.3a2.43,2.43,0,0,1-.57-.14,1.93,1.93,0,0,1-.42-.18.27.27,0,0,1-.05-.14,5.3,5.3,0,0,0,.21-.57c0-.08,0-.12.09-.11l.15.06c.17.05.42.12.76.24l.11,0S110.57,30,110.55,30.11Z"/><path class="cls-5" d="M145.06,73.9l-.54-.11c-.17-.58-.45-1.52-.86-2.84-.29-.88-.71-2.1-1.27-3.65l.54.11c.27.74.69,2,1.27,3.65C144.41,71.74,144.7,72.69,145.06,73.9Z"/><path class="cls-5" d="M125.16,28.94l-.41.31-3.32-1q-1.56-.44-4.35-1.17l.41-.31L121.84,28Z"/><path class="cls-5" d="M144.55,55.92,144,56l-2.24-2.26c-.71-.7-1.71-1.66-3-2.87l.55-.08c.62.57,1.63,1.52,3,2.85C142.86,54.19,143.61,55,144.55,55.92Z"/><path class="cls-5" d="M139,43.94l-.48.24-3-1.52c-.95-.46-2.28-1.08-4-1.87l.49-.23c.81.37,2.14,1,4,1.86Z"/><path class="cls-5" d="M107.7,29.49l-.23.42c-.72,0-1.89.08-3.52.17-1.1.07-2.62.19-4.57.35l.24-.42c.93-.08,2.44-.2,4.56-.35C105,29.61,106.2,29.55,107.7,29.49Z"/><path class="cls-5" d="M18.08,57.81l.49.22c0,.59-.05,1.57-.07,2.93,0,.91,0,2.18.06,3.8l-.49-.23c0-.77,0-2-.06-3.8C18,60,18,59.05,18.08,57.81Z"/><path class="cls-5" d="M47.91,18.9l.22.42c-.45.46-1.18,1.23-2.18,2.3-.67.72-1.57,1.75-2.72,3.06L43,24.26q.81-.95,2.7-3.06C46.24,20.64,47,19.87,47.91,18.9Z"/><path class="cls-5" d="M24.28,38.71l.37.34c-.27.56-.7,1.47-1.28,2.73-.39.86-.89,2-1.53,3.59L21.49,45c.29-.73.8-1.93,1.51-3.59C23.3,40.77,23.73,39.87,24.28,38.71Z"/><path class="cls-5" d="M75.59,23.7l0,.46-3.23,1.16c-1,.38-2.38.93-4.14,1.64l0-.46c.83-.34,2.21-.89,4.13-1.64Z"/><path class="cls-5" d="M81.73,12.62v.46c-.64.28-1.68.73-3.11,1.38-1,.44-2.29,1.07-4,1.9v-.47l4-1.89Z"/><path class="cls-5" d="M29.45,55.74l-.52-.16c-.2-.75-.49-2-.89-3.72-.14-.69-.33-1.66-.56-2.89l.52.14c.11.59.3,1.56.57,2.9"/><path class="cls-5" d="M32.3,44a1.27,1.27,0,0,1,.41.93,2.37,2.37,0,0,1-.3.82l-.43.84q-.59,1.38-.81,1.8a3.42,3.42,0,0,1-1,1.26,1.05,1.05,0,0,1-.89.13,1.79,1.79,0,0,1-.86-.53,3.39,3.39,0,0,1-.47-.71,2.49,2.49,0,0,1-.36-1.09s.05,0,.08,0A4,4,0,0,1,28,48a3.69,3.69,0,0,0,.53.8,1,1,0,0,0,.54.28.82.82,0,0,0,.56-.11,5.92,5.92,0,0,0,1.5-2.21c.14-.27.44-.87.89-1.82.18-.39.23-.61.14-.65a1.61,1.61,0,0,0-.91,0l-1.84.4a6.29,6.29,0,0,1-1.67.06,2.67,2.67,0,0,0-.94,0l-.06.07-.13-.2a2.07,2.07,0,0,0-.35-.41c-.12-.12-.17-.19-.15-.2a1.37,1.37,0,0,1,.34,0,4.46,4.46,0,0,0,.88-.19,1.8,1.8,0,0,1,.67-.12s0,.06-.1.13a4.35,4.35,0,0,0-.4.33,8.87,8.87,0,0,0,2-.3c.88-.22,1.39-.33,1.51-.34A1.58,1.58,0,0,1,32.3,44Z"/><path class="cls-5" d="M25.8,43.12a.85.85,0,0,1,0,.76l-1.07,0q-.29,0-.33-.09c0,.09,0-.17-.11-.76a6.23,6.23,0,0,0,.93,0C25.58,43,25.75,43.05,25.8,43.12Z"/><path class="cls-5" d="M144.78,60.74a1.16,1.16,0,0,1-.92.14,1.61,1.61,0,0,1-.87-.41c-.28-.28-.23-.54.14-.8a2.46,2.46,0,0,1,1-.38l.76-.09.87-.15a.39.39,0,0,1,.2,0c.1,0,.12.07.06.11s-.44.11-1.21.26a.82.82,0,0,1,.29.63A.72.72,0,0,1,144.78,60.74Zm-.45-.14a.73.73,0,0,0-.25-1,.6.6,0,0,0-.44.18.93.93,0,0,0-.12.37A5.86,5.86,0,0,0,144.33,60.6Z"/><path class="cls-5" d="M32.12,33a.8.8,0,0,1,.39.7,1.14,1.14,0,0,1-.27.81.68.68,0,0,1-1,.08,2,2,0,0,1-.69-.73c-.1-.2-.2-.4-.29-.6l-.39-.66a.28.28,0,0,1,0-.17c0-.09.06-.11.12-.08s.23.33.6.92a1.06,1.06,0,0,1,.66-.39A1.11,1.11,0,0,1,32.12,33Zm-.06.4a1.07,1.07,0,0,0-1.12.44.52.52,0,0,0,.32.31,1.36,1.36,0,0,0,.47,0A3.89,3.89,0,0,0,32.06,33.37Z"/><path class="cls-5" d="M113.44,24.31a1,1,0,0,1-.75.46,1.76,1.76,0,0,1-1-.05.48.48,0,0,1-.3-.78,1.92,1.92,0,0,1,.73-.71l.64-.36.7-.44a.38.38,0,0,1,.19-.06q.16,0,.12.09a11.42,11.42,0,0,1-1,.67,1,1,0,0,1,.59.46A.65.65,0,0,1,113.44,24.31Zm-.48,0a.89.89,0,0,0-.75-.81.46.46,0,0,0-.3.32.82.82,0,0,0,.08.38A6.74,6.74,0,0,0,113,24.34Z"/><path class="cls-5" d="M129.88,36.41a.58.58,0,0,1-.38.12c-.16,0-.25,0-.26-.11s0-.34,0-.69a10.64,10.64,0,0,1-2.71-.93,5.37,5.37,0,0,1-2-1.21c0-.06,0-.11,0-.14l2.14,1a8.81,8.81,0,0,0,2.51.92c0-.21,0-.42.05-.63a.66.66,0,0,1,.45-.44,1.49,1.49,0,0,1,.77.07c.37.1.6.22.67.37.22.41.08.71-.42.89a1.94,1.94,0,0,1-.71.1A2.28,2.28,0,0,1,129.88,36.41Zm0-.94a.64.64,0,0,0,.23,0c.32-.12.44-.28.33-.47a.28.28,0,0,0-.35-.18C130,34.79,129.9,35,129.9,35.47Z"/><path class="cls-5" d="M88.3,14.67a.35.35,0,0,1,0,.34q-.09.18-.21.15l-.78-.24a8.4,8.4,0,0,1-2.08,1.71,5.69,5.69,0,0,1-2.12,1.06.18.18,0,0,1-.15-.06l2-1.24a7.14,7.14,0,0,0,2-1.56l-.67-.28a.61.61,0,0,1-.32-.52c0-.12.13-.31.38-.56A1.06,1.06,0,0,1,87,13.1c.55,0,.83.21.83.67a1.22,1.22,0,0,1-.15.58A3.93,3.93,0,0,1,88.3,14.67Zm-1-.38a.63.63,0,0,0,0-.19c0-.3-.14-.44-.4-.44s-.31.07-.34.2S86.78,14.12,87.27,14.29Z"/><path class="cls-5" d="M40,26.06a.38.38,0,0,1,.16.31c0,.13,0,.2-.11.21s-.4.05-.81.08A7.08,7.08,0,0,1,38.25,29a4.29,4.29,0,0,1-1.32,1.73.18.18,0,0,1-.16,0c.36-.62.73-1.23,1.1-1.85a5.76,5.76,0,0,0,.92-2.14H38a.74.74,0,0,1-.56-.34.91.91,0,0,1,0-.65.89.89,0,0,1,.39-.58.8.8,0,0,1,1.11.29,1.17,1.17,0,0,1,.17.58A4.27,4.27,0,0,1,40,26.06Zm-1.13.05a.46.46,0,0,0-.08-.19c-.16-.26-.36-.34-.59-.24s-.24.18-.19.3S38.29,26.13,38.82,26.11Z"/><path class="cls-5" d="M17.66,68.25a.48.48,0,0,1,.3.22q.11.18,0,.24l-.72.34a6.7,6.7,0,0,1,.22,2.42,3.7,3.7,0,0,1-.4,2,.18.18,0,0,1-.15,0l.15-2.06a5.46,5.46,0,0,0-.15-2.27l-.7.25a.87.87,0,0,1-.68-.13,1,1,0,0,1-.26-.61c-.07-.32,0-.54.08-.66A.81.81,0,0,1,16.5,68a1.34,1.34,0,0,1,.43.48A3,3,0,0,1,17.66,68.25Zm-1,.4a1.07,1.07,0,0,0-.16-.14q-.42-.29-.66,0c-.13.13-.14.24,0,.34S16.17,68.85,16.65,68.65Z"/><path class="cls-5" d="M47.33,31.23a5.24,5.24,0,0,1-2.29.7,1.29,1.29,0,0,1,.19.53.5.5,0,0,1-.09.48,2.36,2.36,0,0,1-.78.27,5.06,5.06,0,0,1-1.59.11,2.76,2.76,0,0,1-.15.83,1.58,1.58,0,0,1-.54.84l-.65-.62a2.56,2.56,0,0,0,.74-.74,1.93,1.93,0,0,0,.23-1,.15.15,0,0,0,.12-.14A1.29,1.29,0,0,1,43,31.48a1.19,1.19,0,0,1,.7-.26h.69a5.35,5.35,0,0,0,2.3-.61Zm-2.89,1a1.11,1.11,0,0,0-.65-.2,1,1,0,0,0-.54.16,2.27,2.27,0,0,0-.23.32A8,8,0,0,0,44.44,32.27Z"/><path class="cls-5" d="M53.43,28a2,2,0,0,1-.65.16,2,2,0,0,1-.83,0,.69.69,0,0,1-.42-.33,2.41,2.41,0,0,1-.08.84,1.52,1.52,0,0,1-.76.74l-.51-.7a2.33,2.33,0,0,0,.88-.66.64.64,0,0,0,.06-.33c0-.19,0-.29,0-.32.09-.34.17-.44.27-.31a.71.71,0,0,1,.08.21,1.06,1.06,0,0,0,.24.12,1.61,1.61,0,0,0,.59,0,1.74,1.74,0,0,0,.61-.12ZM50,25.39a.83.83,0,0,1,.15.74l-1.08.12c-.17,0-.29,0-.33-.07a6.24,6.24,0,0,0-.19-.75,5.84,5.84,0,0,0,.92-.08C49.8,25.31,50,25.32,50,25.39Z"/><path class="cls-5" d="M57.67,23.47a2,2,0,0,1,.4,1.65,1.7,1.7,0,0,1-1,1.1l-.43-.74a2.38,2.38,0,0,0,.86-.5.72.72,0,0,0,.21-.51s0,0,0-.09q-.28-.48-3.44-4.29c-.36-.44-.73-.95-1.12-1.52a.88.88,0,0,0-.22-.09.23.23,0,0,1-.12-.1,2.78,2.78,0,0,1-.14-.77l0-.06c.05,0,.17,0,.36.16a4.88,4.88,0,0,1,1.56,1,0,0,0,0,1,0,.07H54.4l-.58-.15Q55.35,20.49,57.67,23.47Z"/><path class="cls-5" d="M61.91,22.67c.1.17.19.35.27.52a2.39,2.39,0,0,1,.29,1.41c0,.13-.07.2-.11.21s-.12-.1-.18-.35a3.44,3.44,0,0,0-.41-.93c-.66-1-1.64-2.49-2.92-4.49-.21-.37-.53-.9-1-1.6a3.17,3.17,0,0,0-.36-.26q-.08,0-.06-.78l0,0s.16,0,.32.17.55.38.81.58a3,3,0,0,1,.7.58l0,.06h-.12a5.44,5.44,0,0,1-.54-.14c0,.11.45.75,1.24,1.93C60.82,20.93,61.5,22,61.91,22.67Z"/><path class="cls-5" d="M75.87,22.46a3.42,3.42,0,0,1-2.19-.57,3.73,3.73,0,0,1-.61-.66.66.66,0,0,0-.5-.33,1.66,1.66,0,0,0-.88.33,2.37,2.37,0,0,0-.76.68l-.71,1.27a1.16,1.16,0,0,1-.93.6,1.61,1.61,0,0,1-1.22-.61,2.48,2.48,0,0,1-.58-1.61,4.13,4.13,0,0,1,.14-1c0-.16.09-.24.15-.25s.11.1.1.28a4.6,4.6,0,0,1,0,.5c0,.14,0,.26,0,.35a2.3,2.3,0,0,0,.3,1.06,1,1,0,0,0,.94.66,1,1,0,0,0,.81-.42c.19-.33.38-.66.56-1a4,4,0,0,1,1-1.17A2.09,2.09,0,0,1,72.74,20a.94.94,0,0,1,.67.37c.36.41.57.63.62.67a2.82,2.82,0,0,0,1.82.55Z"/><path class="cls-5" d="M70.21,17.69a1.16,1.16,0,0,1,.44-.05c.21,0,.34.05.38.13a2.28,2.28,0,0,1,0,.56q-.06.54-.18.57a5.37,5.37,0,0,1-1-.06,3,3,0,0,0,.17-.76C70,17.85,70.11,17.72,70.21,17.69Z"/><path class="cls-5" d="M69.23,16.5a1.55,1.55,0,0,1,.39,0,1.78,1.78,0,0,1,.55.08c0,.21,0,.41,0,.61s-.07.44-.14.46a2.82,2.82,0,0,1-.44,0c-.27,0-.42-.05-.43-.09C69.09,16.87,69.13,16.53,69.23,16.5Z"/><path class="cls-5" d="M84.75,21.2a1.05,1.05,0,0,1-.21.57.64.64,0,0,1-.51.28,3.74,3.74,0,0,1-1-.24,3.12,3.12,0,0,1-1-.59,5.54,5.54,0,0,1-.67.69,2.23,2.23,0,0,1-1.47.46l0-.82A3.92,3.92,0,0,0,81,21.43a2.3,2.3,0,0,0,.81-.56c.3-.3.49-.45.55-.44l.07,0a1.6,1.6,0,0,1,1.27-.73.91.91,0,0,1,.83.48A1.76,1.76,0,0,1,84.75,21.2Zm-.86-.09a.56.56,0,0,0-.16-.39.45.45,0,0,0-.34-.18,1.11,1.11,0,0,0-.56.12l.42.27A1.77,1.77,0,0,0,83.89,21.11Z"/><path class="cls-5" d="M93.26,23.15c0,.33-.08.49-.13.49s-.07-.08-.12-.23a2.28,2.28,0,0,0-.16-.34,7.84,7.84,0,0,0-.85-1q-1.23-.83-4.24-3A14.2,14.2,0,0,1,86,17.38l-.35-.18v0a1.29,1.29,0,0,1,0-.17,1.6,1.6,0,0,0,0-.29,1.22,1.22,0,0,0,0-.26v0h0a1.22,1.22,0,0,1,.45.2l.89.46c.43.21.64.34.63.4s0,0-.08,0a.59.59,0,0,1-.17,0l-.49,0c.12.27,1.8,1.53,5.06,3.79a3.39,3.39,0,0,1,.9.91A1.61,1.61,0,0,1,93.26,23.15Zm-3-7.25.05,0a.48.48,0,0,1-.24.4,5.31,5.31,0,0,1-.92.36,8.29,8.29,0,0,0-1.31.56c-.21.12-.32.13-.32,0s0-.09.1-.15l.22-.21a1.79,1.79,0,0,1,.5-.24.82.82,0,0,1-.45-.16c-.15-.1-.22-.2-.22-.29s.18-.39.54-.65a1.55,1.55,0,0,1,.92-.39c.23,0,.35.11.34.32s-.19.41-.3.4a.56.56,0,0,1-.19-.19.23.23,0,0,0-.21-.09,1,1,0,0,0-.63.33,1.63,1.63,0,0,0,.86.36A5.63,5.63,0,0,0,90.24,15.9Zm4,6.17a2.88,2.88,0,0,1,0,.41,3.72,3.72,0,0,1-.63,1.82,2.43,2.43,0,0,1-.48.58,3.13,3.13,0,0,1-1.25.7l-2.08.55a2.89,2.89,0,0,1-.46.08s-.06,0-.06,0,.11-.12.35-.22l1.42-.65a8.75,8.75,0,0,0,1.52-.87l.76-.57c.26-.21.4-.37.41-.46a1.57,1.57,0,0,0,0-.24,18,18,0,0,0-.56-3.42c-.44-1.94-.67-3-.69-3.2s-.21-.2-.2-.25l.27-.7s0-.07.07-.07.11.05.17.15a16.21,16.21,0,0,1,1,1.55q.11.16-.06.18a.4.4,0,0,1-.16-.07l-.39-.26c.09.47.3,1.41.62,2.81A15,15,0,0,1,94.24,22.07Z"/><path class="cls-5" d="M98.24,23.94a5,5,0,0,1-.06.57,2.43,2.43,0,0,1-.55,1.35q-.15.15-.21.15c-.06,0,0-.14,0-.38a2.93,2.93,0,0,0,.17-1c0-1.14,0-2.84,0-5.11,0-.41,0-1,.06-1.78a2.59,2.59,0,0,0-.17-.37c0-.05.1-.29.39-.71l0,0c.06,0,.12.1.2.28s.25.55.38.82a2.15,2.15,0,0,1,.28.79l-.06,0-.1-.05a3.66,3.66,0,0,1-.4-.33,21.69,21.69,0,0,0,0,2.18Q98.29,22.79,98.24,23.94Z"/><path class="cls-5" d="M27.33,54.81a5.36,5.36,0,0,1-.83-.32,6.79,6.79,0,0,1-.29.73c0,.07.09.14.25.2l1,.33a.83.83,0,0,0,.32-.69C27.77,55,27.62,54.9,27.33,54.81Zm-1.75-1.93h0Z"/><path class="cls-5" d="M124,33.94s-.1.1-.37.24-.43.2-.47.16a9.26,9.26,0,0,0-2.5-.81,21.28,21.28,0,0,1-3.79-1.21.87.87,0,0,1-.43.28c-.07,0-.12,0-.15,0s0-.12.06-.21a.92.92,0,0,0,.17-.25q-.61-.31-1.2-.69l.62-.65c.23.15.51.32.85.51a2.91,2.91,0,0,1,.4-1.09,1.89,1.89,0,0,1,1.23-.53,2.33,2.33,0,0,1,1.45.34,14.65,14.65,0,0,1,1.74,1.63A27,27,0,0,0,124,33.94Zm-2.28-.84a11.67,11.67,0,0,1-1.19-1.22,7.21,7.21,0,0,0-1.44-1.3l-.4-.25a1.23,1.23,0,0,0-.59-.1.8.8,0,0,0-.51.13l0,.06a8.54,8.54,0,0,1-.24,1.16A20.28,20.28,0,0,0,121.76,33.1Z"/><path class="cls-5" d="M127.14,41.49a2.31,2.31,0,0,1-1-1.71,3,3,0,0,1,.16-.82c.08-.25.06-.42-.05-.53a1.73,1.73,0,0,0-.91-.3,3.11,3.11,0,0,0-1.11,0l-1.59.44a1.3,1.3,0,0,1-1.17-.15,1.09,1.09,0,0,1-.3-1.15,2.72,2.72,0,0,1,1-1.46,6.18,6.18,0,0,1,1-.62c.17-.09.27-.12.32-.08s0,.13-.17.25l-.46.32-.31.24a2.56,2.56,0,0,0-.73.91c-.22.45-.2.79.07,1a1.11,1.11,0,0,0,.93.2l1.25-.34a5.54,5.54,0,0,1,1.72-.19,2.23,2.23,0,0,1,1.33.41.66.66,0,0,1,.12.66c-.1.5-.15.78-.15.83a1.92,1.92,0,0,0,.77,1.49Z"/><path class="cls-5" d="M127,36.67a1.26,1.26,0,0,1-.37.19c-.2.06-.34.07-.41,0a1.91,1.91,0,0,1-.24-.52c-.13-.34-.17-.54-.11-.59a5.26,5.26,0,0,1,.91-.26,3.19,3.19,0,0,0,.22.76Q127.11,36.57,127,36.67Z"/><path class="cls-5" d="M128.45,37.44a1.73,1.73,0,0,1-.35.16,2,2,0,0,1-.55.1l-.24-.57c-.11-.27-.14-.43-.09-.47a2.3,2.3,0,0,1,.42-.13c.25-.08.4-.1.43-.07C128.4,37.05,128.52,37.38,128.45,37.44Z"/><path class="cls-5" d="M135.47,48.91c-.82.48-1.46.43-1.92-.14a.8.8,0,0,1-.2-.6c0-.16.08-.33.11-.5a4.68,4.68,0,0,1-.74,0,1.41,1.41,0,0,1-1-.56,1,1,0,0,1-.26-.75.88.88,0,0,1,.57-.68,13,13,0,0,1-1.49-.6,4.86,4.86,0,0,1-1.6-1.23l.8-.47a5.5,5.5,0,0,0,1.36,1.25,14.93,14.93,0,0,0,1.71.77.61.61,0,0,1,.16.09s0,.07,0,.11l-.09,0-.34.13a.84.84,0,0,0,.07,1,1.61,1.61,0,0,0,1.5.53,2.47,2.47,0,0,1,.76.06l0,0s0,.05,0,.07a4.35,4.35,0,0,1-.61.16.86.86,0,0,0,.17.83,1.47,1.47,0,0,0,.28.24c.15.1.25.13.3.1s.08-.09.11-.21a.34.34,0,0,1,.12-.21,1.26,1.26,0,0,1,.74-.26l.07,0c0,.05,0,.17-.13.35A1.28,1.28,0,0,1,135.47,48.91Z"/><path class="cls-5" d="M140.13,58.53a2.14,2.14,0,0,1-.44.11c-.23,0-.36,0-.39,0s0-.08.06-.14a1,1,0,0,0-.11-1.14A3.87,3.87,0,0,0,137.51,56q-.64-.3-3.27-1.26a3.49,3.49,0,0,1-1.73-1,1.21,1.21,0,0,1-.14-1,1.18,1.18,0,0,1,.71-.74,6.17,6.17,0,0,1,3-.27c.16,0,.25.06.29.13l0,0a.63.63,0,0,1-.29,0,5.6,5.6,0,0,0-2.7.31c-.45.22-.57.49-.37.82A4.12,4.12,0,0,0,135,54.34l3,1.12a4.79,4.79,0,0,1,2.29,1.76,1.17,1.17,0,0,1,.21.8A.63.63,0,0,1,140.13,58.53Z"/><path class="cls-5" d="M113.1,28.77l-.36.77a1.83,1.83,0,0,1-.55-.34,1.49,1.49,0,0,1-.46-.57.59.59,0,0,1,.06-.48,3.56,3.56,0,0,1-.85.45l-.11,0h-.09l-.16,0h-.11a2,2,0,0,1-.62-.1h-.08a.16.16,0,0,1,0-.11c-.08-.33-.41-.59-1-.79a4.83,4.83,0,0,0-2.36,0q-.72.13-3.42.87a4.07,4.07,0,0,1-2.13.17,1.6,1.6,0,0,1-.93-.69.93.93,0,0,1-.07-.95,4.61,4.61,0,0,1,2-1.84.39.39,0,0,1,.32-.06l0,.05a.71.71,0,0,1-.21.17,4.09,4.09,0,0,0-1.74,1.72.55.55,0,0,0,.38.82,5,5,0,0,0,2.63-.13l3.11-.82a6.11,6.11,0,0,1,3.12,0,1.68,1.68,0,0,1,.79.49.61.61,0,0,1,.17.4,2.27,2.27,0,0,0,.9.12,1.1,1.1,0,0,0,.35-.16l.32-.18c.37-.16.52-.16.45,0a.6.6,0,0,1-.16.18c0,.06,0,.14,0,.24a1.21,1.21,0,0,0,.32.41A1.37,1.37,0,0,0,113.1,28.77Z"/><path class="cls-5" d="M137.13,67.33a1.47,1.47,0,0,1,.1-1.3A4.94,4.94,0,0,1,139,64.64a2.56,2.56,0,0,1-.86-.07,8.61,8.61,0,0,1-2.29-1.18,5.25,5.25,0,0,1-2-2q-.42-1,1.08-1.44A6.13,6.13,0,0,1,138,60c.25.06.38.12.41.18l-.05,0a.86.86,0,0,1-.39,0,6.12,6.12,0,0,0-2.74-.09c-.48.17-.6.52-.37,1.06a3.6,3.6,0,0,0,.57.73,8.23,8.23,0,0,0,1.33,1.15q.6.4.9.57a6,6,0,0,0,1.85.7l.57-.3q.13-.07,1.14-.81c.48-.36,1-.75,1.61-1.16l.84-.11.06,0c.06.14-.6.71-2,1.7a19.44,19.44,0,0,1-2.29,1.33,3.05,3.05,0,0,0-1.25,1,1,1,0,0,0-.12.94Z"/><path class="cls-5" d="M137.84,74.77a1.52,1.52,0,0,1-.65-.25c-.2-.16-.29-.31-.25-.47a2,2,0,0,1,.42-.74,2.51,2.51,0,0,1,.85-.78,6.63,6.63,0,0,1-.73-.66,1.47,1.47,0,0,1-.34-1.27l1,.14a2.15,2.15,0,0,0,0,.91,1.72,1.72,0,0,0,.55.75c.31.29.46.46.45.52l-.06,0c.53.4.76.78.69,1.15s-.3.5-.7.61A3,3,0,0,1,137.84,74.77Zm.23-.69a.93.93,0,0,0,.49-.08c.15-.07.24-.15.26-.25a.63.63,0,0,0-.06-.48,4.1,4.1,0,0,0-.38.31A1.21,1.21,0,0,0,138.07,74.08Z"/><path class="cls-5" d="M37.78,37.08a1.86,1.86,0,0,1,.71,1,5.72,5.72,0,0,1-.29,2,4.76,4.76,0,0,1-1.45,2.51,1.9,1.9,0,0,1-1.61.42,3,3,0,0,1-1.33-.67l-.16-.14A3.69,3.69,0,0,1,32.9,41c-.1-.24-.13-.39-.07-.43s0,0,.08,0a1.11,1.11,0,0,1,.2.32,4,4,0,0,0,.21.42,2.88,2.88,0,0,0,.41.5,1.79,1.79,0,0,0,2.6,0,4.93,4.93,0,0,0,1.35-2.41A4.69,4.69,0,0,0,38,37.6a.77.77,0,0,0-.48,0,2,2,0,0,0-.73.43l-.33.28a.83.83,0,0,1-1.15.1,1.08,1.08,0,0,1-.44-.85.89.89,0,0,1,.31-.73,1.73,1.73,0,0,1,1-.27A2.33,2.33,0,0,1,37.78,37.08Zm-1.24.21a1.56,1.56,0,0,0-.9.2c-.19.16-.22.29-.09.42a.57.57,0,0,0,.38-.16l.34-.28A1.27,1.27,0,0,1,36.54,37.29Z"/><path class="cls-5" d="M134.12,74.65a.29.29,0,0,1-.14,0,.09.09,0,0,1-.07-.09.74.74,0,0,1,.06-.18.52.52,0,0,1,.15-.19l-.18-.07a1,1,0,0,1-.3-.25l-.21-.35a3,3,0,0,1-.2-.38c0-.09,0-.22-.08-.39l-.07-.33v0s0,0,0,0,0,0,0,.06.1.27.2.51c0,.08.13.28.28.57l.15.27a1,1,0,0,0,.27.3l.18.1c.07,0,.11.06.1.08v0c.12.07.18.14.17.22a.16.16,0,0,1-.12.15A.62.62,0,0,1,134.12,74.65Zm0-.15a.17.17,0,0,0,.1,0s0,0,0-.07a.15.15,0,0,0,0-.1.33.33,0,0,0-.06.08A.61.61,0,0,0,134.15,74.5Z"/><path class="cls-5" d="M48.74,33.49a.32.32,0,0,1,0,.16.15.15,0,0,1-.09.13,1,1,0,0,1-.31.06.72.72,0,0,1-.38,0v.24a.94.94,0,0,1-.16.47c0,.06-.17.21-.38.46s-.38.4-.44.45-.3.2-.53.35l-.45.29,0,0s0,0,0,0S46,36,46,36l.63-.54.66-.68.3-.33a1.31,1.31,0,0,0,.27-.48,1.83,1.83,0,0,0,0-.25c0-.1,0-.15.05-.16h0a.38.38,0,0,1,.22-.33.32.32,0,0,1,.3,0A.59.59,0,0,1,48.74,33.49Zm-.25.06a.15.15,0,0,0-.11-.08h-.13a.28.28,0,0,0-.13.1h.16A.76.76,0,0,0,48.49,33.55Z"/><path class="cls-5" d="M84,24.27a.24.24,0,0,1,0,.14.13.13,0,0,1-.12.07,1.09,1.09,0,0,1-.27,0,.6.6,0,0,1-.27-.14,1.74,1.74,0,0,0-.1.19,1,1,0,0,1-.34.31l-.48.23a5.41,5.41,0,0,1-.54.22l-.56.11-.47.09h0s0,0,0,0,0,0,.07-.05l.72-.23c.13,0,.39-.15.81-.32a3.81,3.81,0,0,0,.37-.17,1.45,1.45,0,0,0,.42-.28s.07-.09.13-.19.08-.11.11-.11h0a.41.41,0,0,1,.31-.19.25.25,0,0,1,.22.11A.41.41,0,0,1,84,24.27Zm-.22,0a.14.14,0,0,0,0-.09s-.07,0-.11,0a.32.32,0,0,0-.14,0l.13.06A.47.47,0,0,0,83.73,24.24Z"/><path class="cls-5" d="M27.07,40.61a1.39,1.39,0,0,1,1.28.09s-.59-.9,0-1.07c0,0,.71-.19.79.37,0,0,.13.18-.64.08,0,0-.31,0,.77,1.28l-.43.22a1.45,1.45,0,0,0-1.49-.44S26.87,40.84,27.07,40.61Z"/><path class="cls-5" d="M118.07,36.76a.9.9,0,0,1,.31,1s.84-.75,1.22-.33c0,0,.44.49-.17.73,0,0-.17.16-.3-.48,0,0,0-.25-1.21,1l-.39-.27s.67-.79,0-1.32C117.56,37.15,117.75,36.68,118.07,36.76Z"/><path class="cls-5" d="M135.47,44.19a.9.9,0,0,1,.31,1s.84-.76,1.22-.33c0,0,.44.49-.17.73,0,0-.17.16-.3-.48,0,0-.05-.25-1.21,1l-.39-.27s.67-.79,0-1.32C135,44.58,135.15,44.11,135.47,44.19Z"/><path class="cls-5" d="M110.71,31.78a.89.89,0,0,1,.32,1s.83-.75,1.22-.33a.43.43,0,0,1-.18.74s-.16.16-.3-.48c0,0,0-.25-1.2,1l-.39-.27s.66-.79,0-1.31C110.21,32.17,110.39,31.69,110.71,31.78Z"/><path class="cls-5" d="M107.86,22.68a.88.88,0,0,1,.31,1s.84-.75,1.22-.33a.43.43,0,0,1-.17.74s-.17.16-.3-.48c0,0,0-.25-1.21,1l-.38-.28s.66-.78,0-1.31C107.35,23.07,107.54,22.59,107.86,22.68Z"/><path class="cls-5" d="M135.07,39.43a.9.9,0,0,1,.32,1s.83-.75,1.22-.33a.42.42,0,0,1-.18.73s-.16.16-.3-.48c0,0,0-.25-1.21,1l-.38-.27s.66-.79,0-1.32C134.56,39.82,134.75,39.35,135.07,39.43Z"/><path class="cls-5" d="M140.56,70.39a.88.88,0,0,1,.31,1s.84-.75,1.22-.33c0,0,.44.5-.17.74,0,0-.17.16-.3-.48,0,0-.05-.25-1.21,1l-.38-.28s.66-.78,0-1.31C140.05,70.78,140.24,70.3,140.56,70.39Z"/><path class="cls-5" d="M126.38,30.34a.89.89,0,0,1,.31,1s.83-.75,1.22-.33c0,0,.44.5-.17.74,0,0-.17.16-.3-.48,0,0,0-.25-1.21,1l-.39-.28s.66-.78,0-1.31C125.87,30.73,126.06,30.25,126.38,30.34Z"/><path class="cls-5" d="M114.51,26.57a.89.89,0,0,1,.32,1s.83-.75,1.22-.33a.43.43,0,0,1-.18.74s-.16.16-.3-.48c0,0,0-.25-1.21,1l-.38-.28s.66-.78,0-1.31C114,27,114.19,26.48,114.51,26.57Z"/><path class="cls-5" d="M78.14,23.36a.9.9,0,0,1,.32,1s.83-.76,1.22-.34a.43.43,0,0,1-.18.74s-.16.16-.3-.48c0,0,0-.25-1.21,1l-.38-.28s.66-.78,0-1.31C77.63,23.75,77.82,23.27,78.14,23.36Z"/><path class="cls-5" d="M88.16,23.83a.9.9,0,0,1,.32,1s.83-.75,1.21-.33c0,0,.44.49-.17.73,0,0-.16.16-.3-.48,0,0,0-.25-1.21,1l-.38-.27s.66-.79,0-1.32C87.65,24.22,87.84,23.75,88.16,23.83Z"/><path class="cls-5" d="M125.27,44.39a.89.89,0,0,1,.31,1s.83-.75,1.22-.33c0,0,.44.5-.17.74,0,0-.17.16-.3-.48,0,0,0-.25-1.21,1l-.39-.28s.67-.78,0-1.31C124.76,44.78,125,44.3,125.27,44.39Z"/><path class="cls-5" d="M130.63,48.92a.9.9,0,0,1,.32,1s.83-.76,1.22-.33a.42.42,0,0,1-.18.73s-.16.16-.3-.48c0,0,0-.25-1.21,1l-.38-.28s.66-.78,0-1.31C130.12,49.31,130.31,48.84,130.63,48.92Z"/><path class="cls-5" d="M42.47,36.5a1.38,1.38,0,0,1,1.28-.13s-.79-.78-.24-1c0,0,.65-.3.86.24,0,0,.17.15-.61.18,0,0-.31,0,1.06,1.13l-.38.28s-.85-.65-1.56-.19C42.88,37,42.33,36.76,42.47,36.5Z"/><path class="cls-5" d="M51.92,24.12A1.38,1.38,0,0,1,53.2,24s-.79-.78-.24-1c0,0,.65-.3.86.24,0,0,.17.15-.61.18,0,0-.31,0,1.06,1.13l-.38.28a1.51,1.51,0,0,0-1.57-.19S51.78,24.38,51.92,24.12Z"/><path class="cls-5" d="M41.86,28.32a1.35,1.35,0,0,1,1.27-.13s-.79-.78-.24-1c0,0,.65-.3.86.23,0,0,.17.16-.61.19,0,0-.31,0,1.06,1.13l-.38.28s-.85-.65-1.56-.19C42.26,28.79,41.71,28.57,41.86,28.32Z"/><path class="cls-5" d="M37.66,33.4a1.38,1.38,0,0,1,1.28-.13s-.79-.78-.24-1c0,0,.65-.3.86.24,0,0,.17.15-.61.18,0,0-.31,0,1.06,1.13l-.38.28a1.51,1.51,0,0,0-1.57-.19S37.52,33.66,37.66,33.4Z"/><path class="cls-5" d="M15.54,53.07a1.38,1.38,0,0,1,1.28-.13s-.79-.78-.24-1c0,0,.65-.3.86.23,0,0,.17.16-.61.19,0,0-.31,0,1.06,1.12l-.38.29a1.51,1.51,0,0,0-1.57-.19S15.4,53.32,15.54,53.07Z"/><path class="cls-5" d="M20.06,59.35a1.35,1.35,0,0,1,1.27-.13s-.79-.78-.24-1c0,0,.65-.3.86.23,0,0,.17.16-.61.19,0,0-.31,0,1.06,1.13L22,60s-.85-.65-1.56-.19C20.46,59.82,19.91,59.6,20.06,59.35Z"/><path class="cls-5" d="M13.18,61.81a1.35,1.35,0,0,1,1.27-.13s-.79-.78-.24-1c0,0,.65-.3.86.24,0,0,.17.15-.61.18,0,0-.31,0,1.06,1.13l-.38.28s-.85-.65-1.56-.19C13.58,62.28,13,62.07,13.18,61.81Z"/><path class="cls-5" d="M20.06,50.37a1.35,1.35,0,0,1,1.27-.13s-.79-.78-.24-1c0,0,.65-.3.86.23,0,0,.17.16-.61.19,0,0-.31,0,1.06,1.13L22,51s-.85-.65-1.56-.19C20.46,50.84,19.91,50.62,20.06,50.37Z"/><path class="cls-5" d="M19.3,67a1.38,1.38,0,0,1,1.28-.13s-.79-.78-.24-1c0,0,.64-.3.86.23,0,0,.16.16-.62.19,0,0-.3,0,1.06,1.13l-.37.28s-.86-.65-1.57-.19C19.7,67.43,19.16,67.21,19.3,67Z"/><path class="cls-5" d="M96.94,26.85a.94.94,0,0,1,.56.95s.64-.88,1.12-.54c0,0,.55.4,0,.75,0,0-.12.18-.41-.41,0,0-.11-.24-.94,1.2l-.44-.2s.45-.88-.3-1.28C96.54,27.32,96.6,26.83,96.94,26.85Z"/><path class="cls-5" d="M49.54,32a1.35,1.35,0,0,1,1.21.36s-.29-1,.35-1c0,0,.74,0,.64.53,0,0,.07.21-.65-.06,0,0-.28-.11.34,1.4l-.49.11a1.27,1.27,0,0,0-1.29-.74S49.27,32.16,49.54,32Z"/><path class="cls-5" d="M56,28.71a1.33,1.33,0,0,1,1.21.37s-.29-1,.35-1c0,0,.74,0,.64.53,0,0,.06.2-.65-.06,0,0-.28-.11.34,1.4l-.49.11a1.29,1.29,0,0,0-1.29-.75S55.7,28.89,56,28.71Z"/><path class="cls-5" d="M58.92,25a1.34,1.34,0,0,1,1.21.36s-.28-1,.35-1c0,0,.74,0,.64.53,0,0,.07.2-.64-.06,0,0-.28-.11.34,1.4l-.49.11a1.3,1.3,0,0,0-1.3-.75S58.66,25.17,58.92,25Z"/><path class="cls-5" d="M100.77,21.81a1.54,1.54,0,0,1,1.32.74s0-1.27.8-1.14c0,0,.9.15.58.8,0,0,0,.26-.76-.24,0,0-.29-.2-.11,1.78H102a1.43,1.43,0,0,0-1.28-1.23S100.38,22,100.77,21.81Z"/><path class="cls-5" d="M62.72,19.81a1.54,1.54,0,0,1,1.33.75s0-1.27.8-1.15c0,0,.9.16.57.81,0,0,0,.26-.76-.25,0,0-.29-.2-.11,1.78h-.63a1.43,1.43,0,0,0-1.28-1.24S62.34,20,62.72,19.81Z"/><path class="cls-5" d="M67.43,13.85a.89.89,0,0,1,.77.43s0-.73.46-.66c0,0,.52.09.33.46,0,0,0,.15-.44-.14,0,0-.17-.11-.06,1h-.36a.83.83,0,0,0-.74-.71S67.21,13.93,67.43,13.85Z"/><path class="cls-5" d="M61.26,15.82a.92.92,0,0,1,.77.43s0-.73.46-.66c0,0,.52.09.33.46,0,0,0,.15-.44-.13,0,0-.17-.12-.06,1H62a.83.83,0,0,0-.74-.71S61,15.9,61.26,15.82Z"/><path class="cls-5" d="M76.27,18.47a.87.87,0,0,1,.76.43s0-.74.46-.66c0,0,.52.09.33.46,0,0,0,.15-.43-.14,0,0-.17-.11-.07,1H77a.83.83,0,0,0-.74-.71S76.05,18.55,76.27,18.47Z"/><path class="cls-5" d="M30.63,37.86a.9.9,0,0,1,.77.42s0-.73.46-.66c0,0,.52.09.33.47,0,0,0,.15-.44-.14,0,0-.17-.12-.06,1h-.36a.83.83,0,0,0-.74-.71S30.41,37.94,30.63,37.86Z"/><path class="cls-5" d="M33.82,44.54a.88.88,0,0,1,.76.43s0-.74.46-.66c0,0,.52.09.33.46,0,0,0,.15-.43-.14,0,0-.17-.12-.07,1h-.36a.83.83,0,0,0-.74-.71S33.6,44.62,33.82,44.54Z"/><path class="cls-5" d="M142.07,49.54a.87.87,0,0,1,.76.43s0-.74.47-.66c0,0,.51.09.33.46,0,0,0,.15-.44-.14,0,0-.17-.12-.06,1h-.37A.81.81,0,0,0,142,50S141.85,49.62,142.07,49.54Z"/><path class="cls-5" d="M101.31,18.47a.89.89,0,0,1,.77.43s0-.74.46-.66c0,0,.52.09.33.46,0,0,0,.15-.44-.14,0,0-.17-.11-.06,1H102a.83.83,0,0,0-.74-.71S101.09,18.55,101.31,18.47Z"/><path class="cls-5" d="M110.55,25.87a.9.9,0,0,1,.76.43s0-.73.46-.66c0,0,.52.09.33.47,0,0,0,.15-.43-.14,0,0-.17-.12-.07,1h-.36a.83.83,0,0,0-.74-.72S110.33,26,110.55,25.87Z"/><path class="cls-5" d="M13.48,71.89a.89.89,0,0,1,.77.43s0-.73.46-.66c0,0,.52.09.33.46,0,0,0,.15-.44-.14,0,0-.17-.11-.06,1h-.36a.83.83,0,0,0-.74-.71S13.26,72,13.48,71.89Z"/><path class="cls-5" d="M134.41,64.41a1.13,1.13,0,0,1-.68,1.2s1.51-.18,1.48.48a.65.65,0,0,1-.86.59s-.31,0,.17-.65c0,0,.19-.28-2.13.18l-.11-.52s1.38-.32,1.27-1.24C133.55,64.45,134.18,64.11,134.41,64.41Z"/><path class="cls-5" d="M135.16,56.6a1.13,1.13,0,0,1-.69,1.2s1.52-.18,1.49.48a.67.67,0,0,1-.87.6s-.31,0,.17-.66c0,0,.2-.28-2.13.18l-.11-.51s1.38-.33,1.27-1.25C134.29,56.64,134.93,56.31,135.16,56.6Z"/><path class="cls-5" d="M66.27,26.51v-.05h0a.21.21,0,0,0-.18-.09.2.2,0,0,0-.14.05h0l0,0-.06.06c0,.15-.18.27-.4.28a.46.46,0,0,1-.36-.15,3.6,3.6,0,0,1,.15-.37h0L66,24.72l-.29,0a3,3,0,0,0-.51.47h0a2.28,2.28,0,0,0-.27.38c-.32.5-.78,1.35-.39,1.72a.82.82,0,0,0,.7.29.88.88,0,0,0,.6-.22,1.07,1.07,0,0,0,.42-.77v0Z"/><path class="cls-5" d="M66.91,17V17h0a.23.23,0,0,0-.18-.08.25.25,0,0,0-.15.05h0l0,0-.06.06c0,.16-.17.28-.39.28a.42.42,0,0,1-.36-.15c0-.09.08-.21.14-.36h0l.77-1.54-.28,0a2.4,2.4,0,0,0-.52.47h0a2.78,2.78,0,0,0-.27.37c-.33.5-.78,1.36-.39,1.72a.86.86,0,0,0,.7.3.9.9,0,0,0,.6-.22,1,1,0,0,0,.41-.78v0Z"/><path class="cls-5" d="M74.09,14.88v-.05h0a.19.19,0,0,0-.18-.08.33.33,0,0,0-.14,0h0l0,0-.06.06c0,.15-.18.28-.39.28a.44.44,0,0,1-.36-.15,2.56,2.56,0,0,1,.14-.36h0l.77-1.54-.29,0a2.64,2.64,0,0,0-.51.48h0a2.6,2.6,0,0,0-.26.38c-.33.5-.79,1.35-.4,1.72a.84.84,0,0,0,.7.29.85.85,0,0,0,.6-.21,1.09,1.09,0,0,0,.42-.78v0Z"/><path class="cls-5" d="M41.17,39.33l0,0h0a.17.17,0,0,0-.15,0,.09.09,0,0,0,0,.09h0v0l0,.06a.22.22,0,0,1,0,.34.37.37,0,0,1-.29.11l-.2-.26h0l-.76-1.16-.18.13a1.93,1.93,0,0,0,.1.5h0a1.75,1.75,0,0,0,.15.33c.21.41.61,1.07,1.08,1h0a.67.67,0,0,0,.57-.21.49.49,0,0,0,.14-.41.84.84,0,0,0-.38-.6l0,0Z"/><path class="cls-5" d="M114.1,34.25l0,0h0a.13.13,0,0,0-.11-.1.19.19,0,0,0-.13,0h0l-.06,0a.32.32,0,0,1-.38.14.32.32,0,0,1-.23-.19c0-.06.12-.15.21-.24h0l1-1-.2-.09a2.38,2.38,0,0,0-.53.26h0a2.49,2.49,0,0,0-.31.23c-.39.31-1,.87-.8,1.22h0a.57.57,0,0,0,.44.36.76.76,0,0,0,.52,0,1,1,0,0,0,.54-.51v0Z"/><path class="cls-5" d="M125.77,42.82v0h0a.13.13,0,0,0-.11-.1.16.16,0,0,0-.12,0h0l-.06,0a.31.31,0,0,1-.38.14.32.32,0,0,1-.23-.19l.22-.24h0l1-1-.21-.09a2.52,2.52,0,0,0-.52.25h0a2.49,2.49,0,0,0-.31.23c-.39.31-1,.87-.79,1.22h0a.54.54,0,0,0,.44.36.73.73,0,0,0,.51,0,1,1,0,0,0,.54-.51v0Z"/><path class="cls-5" d="M146.46,64.42l0,0h0a.1.1,0,0,0-.1,0,.14.14,0,0,0,0,.06h0v0a.13.13,0,0,1,0,.21.22.22,0,0,1-.17.07.74.74,0,0,1-.12-.16h0l-.46-.71-.11.08a1,1,0,0,0,.06.31h0a1.29,1.29,0,0,0,.09.2c.13.25.38.66.66.64h0a.42.42,0,0,0,.35-.12.3.3,0,0,0,.08-.26.55.55,0,0,0-.22-.37Z"/><path class="cls-5" d="M20.66,74.15l0,0h0a.1.1,0,0,0-.1,0,.14.14,0,0,0,0,.06h0v0a.13.13,0,0,1,0,.21.18.18,0,0,1-.17.06l-.12-.15h0l-.46-.71-.11.08a.94.94,0,0,0,.06.3h0a1.29,1.29,0,0,0,.09.2c.13.25.38.65.66.64h0a.4.4,0,0,0,.35-.13.28.28,0,0,0,.08-.25.52.52,0,0,0-.22-.37Z"/><path class="cls-5" d="M51.06,20.43l0,0h0a.08.08,0,0,0-.09,0s0,0,0,.06h0v0a.14.14,0,0,1,0,.21.26.26,0,0,1-.18.07l-.12-.16h0L50.17,20l-.11.08a1.42,1.42,0,0,0,.06.31h0c0,.08.07.15.09.2.13.25.38.66.67.64h0a.4.4,0,0,0,.34-.12.31.31,0,0,0,.09-.26.59.59,0,0,0-.23-.37h0Z"/><path class="cls-5" d="M134.32,69.37l0,0h0a.11.11,0,0,0,0-.13.21.21,0,0,0-.1-.06h-.1a.33.33,0,0,1-.4-.09.23.23,0,0,1,0-.27l.35-.08h0l1.56-.23-.09-.18a2.68,2.68,0,0,0-.6-.08h0a2.56,2.56,0,0,0-.42,0c-.54,0-1.42.15-1.54.52h0a.44.44,0,0,0,.06.51.65.65,0,0,0,.44.24,1.21,1.21,0,0,0,.8-.11Z"/><path class="cls-5" d="M130.53,53.27l0,0h0a.14.14,0,0,0,0-.14.21.21,0,0,0-.1-.06h-.11a.32.32,0,0,1-.39-.09.24.24,0,0,1,0-.26l.36-.08h0l1.57-.24-.09-.18a3.42,3.42,0,0,0-.6-.08h0l-.42,0c-.54,0-1.42.15-1.55.52h0a.46.46,0,0,0,.07.52.68.68,0,0,0,.43.23,1.26,1.26,0,0,0,.8-.1l0,0Z"/><path class="cls-5" d="M95.32,26.41v0h0a.16.16,0,0,0-.12-.09.16.16,0,0,0-.12,0h0l0,0c0,.12-.19.19-.36.17a.3.3,0,0,1-.25-.17,2.08,2.08,0,0,1,.18-.26h0L95.49,25l-.22-.07a2.28,2.28,0,0,0-.49.3h0a1.81,1.81,0,0,0-.28.26c-.35.34-.88.94-.65,1.27h0a.63.63,0,0,0,.48.33.76.76,0,0,0,.51-.09.87.87,0,0,0,.48-.54v0Z"/><path class="cls-5" d="M131.9,56.19v0h0a.15.15,0,0,0-.12-.09.16.16,0,0,0-.12,0h0l-.06,0a.3.3,0,0,1-.36.16.31.31,0,0,1-.25-.16,2.08,2.08,0,0,1,.18-.26h0l.91-1.09-.21-.07a2.36,2.36,0,0,0-.5.3h0a1.94,1.94,0,0,0-.29.26c-.35.34-.87.94-.64,1.27h0a.6.6,0,0,0,.48.33.78.78,0,0,0,.51-.09.88.88,0,0,0,.47-.54v0Z"/><path class="cls-5" d="M14.81,65.72l0,0h0a.17.17,0,0,0-.14.07.12.12,0,0,0,0,.1h0l0,.06a.22.22,0,0,1,.09.33.34.34,0,0,1-.26.16l-.25-.22h0l-1-1-.15.15a2.11,2.11,0,0,0,.21.48h0a1.56,1.56,0,0,0,.22.3c.3.37.85,1,1.3.86h0a.66.66,0,0,0,.51-.29.47.47,0,0,0,0-.44.94.94,0,0,0-.5-.52l0,0Z"/><path class="cls-5" d="M129.64,47.8v0h0a.15.15,0,0,0-.12-.09.23.23,0,0,0-.12,0h0l0,0-.06,0a.3.3,0,0,1-.36.16.34.34,0,0,1-.25-.17l.19-.26h0l.9-1.08-.21-.08a2.87,2.87,0,0,0-.5.3h0a1.86,1.86,0,0,0-.28.25c-.36.34-.88.94-.65,1.28h0a.59.59,0,0,0,.48.32.72.72,0,0,0,.51-.08.93.93,0,0,0,.48-.55v0Z"/><path class="cls-5" d="M108.27,31.13v0h0a.15.15,0,0,0-.13-.09.14.14,0,0,0-.11,0h0l-.06,0a.3.3,0,0,1-.36.16.33.33,0,0,1-.25-.16,2.34,2.34,0,0,1,.19-.26h0l.91-1.09-.22-.07a2.26,2.26,0,0,0-.49.29h0a2.53,2.53,0,0,0-.28.25c-.35.35-.88.94-.65,1.28h0a.6.6,0,0,0,.48.33.77.77,0,0,0,.51-.09.94.94,0,0,0,.48-.54v0Z"/><path class="cls-5" d="M87.94,23v0h0a.18.18,0,0,0-.13-.09.17.17,0,0,0-.12,0h0l-.06,0c0,.12-.19.19-.36.17a.34.34,0,0,1-.25-.17,2.34,2.34,0,0,1,.19-.26h0l.9-1.09-.21-.07a2.28,2.28,0,0,0-.49.3h0c-.12.1-.21.19-.28.26-.35.34-.88.94-.65,1.27h0a.6.6,0,0,0,.48.33.72.72,0,0,0,.51-.09.94.94,0,0,0,.48-.54v0Z"/><path class="cls-5" d="M107.11,21.52v0h0a.15.15,0,0,0-.12-.09.25.25,0,0,0-.12,0h0l0,0-.06,0a.31.31,0,0,1-.36.16.34.34,0,0,1-.25-.17l.19-.26h0l.9-1.08-.21-.08a2.87,2.87,0,0,0-.5.3h0a1.86,1.86,0,0,0-.28.25c-.36.34-.88.94-.65,1.28h0a.61.61,0,0,0,.48.32.72.72,0,0,0,.51-.08.93.93,0,0,0,.48-.55v0Z"/><path class="cls-5" d="M117.26,25.09v0h0a.15.15,0,0,0-.13-.09.14.14,0,0,0-.11,0h0l0,0a.32.32,0,0,1-.37.16.29.29,0,0,1-.24-.16,1.37,1.37,0,0,1,.18-.26h0l.91-1.09-.22-.07a2.26,2.26,0,0,0-.49.29h0a2.53,2.53,0,0,0-.28.25c-.35.35-.88.94-.65,1.28h0a.63.63,0,0,0,.48.33.76.76,0,0,0,.51-.09.91.91,0,0,0,.48-.54v0Z"/><path class="cls-5" d="M140,47.32l0,0h0a.11.11,0,0,0,0-.13.34.34,0,0,0-.11,0h-.11a.35.35,0,0,1-.41,0,.26.26,0,0,1-.09-.25l.34-.13h0l1.5-.46-.13-.16a3.05,3.05,0,0,0-.61,0h0l-.4.07c-.53.11-1.37.35-1.42.74h0a.44.44,0,0,0,.17.49.71.71,0,0,0,.47.18,1.24,1.24,0,0,0,.77-.22l0,0Z"/><path class="cls-5" d="M133.14,38v0h0a.15.15,0,0,0-.12-.09.16.16,0,0,0-.12,0h0l0,0-.06,0a.31.31,0,0,1-.36.16.32.32,0,0,1-.25-.17l.18-.26h0l.9-1.08-.21-.08a2.87,2.87,0,0,0-.5.3h0a2.55,2.55,0,0,0-.28.26c-.36.34-.88.94-.65,1.28h0a.61.61,0,0,0,.48.32.77.77,0,0,0,.51-.08.92.92,0,0,0,.47-.55v0Z"/><path class="cls-5" d="M34.12,30v0h0a.17.17,0,0,0-.13-.09.14.14,0,0,0-.11,0h0l0,0-.06,0a.3.3,0,0,1-.36.17.34.34,0,0,1-.25-.17l.19-.26h0l.91-1.09-.22-.07a2.28,2.28,0,0,0-.49.3h0c-.12.1-.21.19-.28.26-.35.34-.88.94-.65,1.28h0a.61.61,0,0,0,.48.32.77.77,0,0,0,.51-.08.94.94,0,0,0,.48-.55v0Z"/><path class="cls-5" d="M146.77,69.31v0h0a.17.17,0,0,0-.13-.09.17.17,0,0,0-.12,0h0l0,0-.06,0a.3.3,0,0,1-.36.17.34.34,0,0,1-.25-.17L146,69h0l.91-1.09-.22-.07a2.28,2.28,0,0,0-.49.3h0c-.12.1-.21.19-.28.26-.35.34-.88.94-.65,1.28h0a.61.61,0,0,0,.48.32.77.77,0,0,0,.51-.08,1,1,0,0,0,.48-.55v0Z"/><path class="cls-5" d="M140.71,67.7v0h0a.16.16,0,0,0-.12-.09.16.16,0,0,0-.12,0h0l-.05,0c0,.12-.2.19-.37.17a.3.3,0,0,1-.24-.17,2.08,2.08,0,0,1,.18-.26h0l.91-1.09-.22-.07a2.28,2.28,0,0,0-.49.3h0a1.81,1.81,0,0,0-.28.26c-.35.34-.88.94-.65,1.27h0a.63.63,0,0,0,.48.33.76.76,0,0,0,.51-.09.91.91,0,0,0,.48-.54v0Z"/><path class="cls-5" d="M28.33,36.36l0,0h0a.18.18,0,0,0-.16,0,.12.12,0,0,0,0,.1h0v0l0,.06a.22.22,0,0,1,0,.34.39.39,0,0,1-.3.11,2.55,2.55,0,0,1-.19-.26h0l-.74-1.17-.17.12a1.8,1.8,0,0,0,.08.5h0a1.72,1.72,0,0,0,.14.33c.2.42.6,1.08,1.06,1.07h0a.7.7,0,0,0,.57-.21.47.47,0,0,0,.15-.41.86.86,0,0,0-.36-.61h0Z"/><path class="cls-5" d="M19.88,47.41l0,0h0a.18.18,0,0,0-.16,0,.13.13,0,0,0,0,.1h0v0l0,.06a.23.23,0,0,1,0,.35.38.38,0,0,1-.3.1l-.19-.25h0l-.74-1.17-.17.13a1.94,1.94,0,0,0,.08.5h0a1.39,1.39,0,0,0,.14.32c.2.42.6,1.08,1.06,1.07h0a.72.72,0,0,0,.57-.2.48.48,0,0,0,.15-.42.84.84,0,0,0-.36-.6l0,0Z"/><path class="cls-5" d="M20.22,55.55l0,0h0a.17.17,0,0,0-.15,0,.13.13,0,0,0,0,.1h0v.08a.21.21,0,0,1,0,.34.37.37,0,0,1-.29.11l-.2-.26h0l-.74-1.17-.18.12a1.49,1.49,0,0,0,.09.5h0c0,.13.1.24.14.33.21.41.6,1.08,1.07,1.07h0a.71.71,0,0,0,.57-.21.46.46,0,0,0,.14-.41.86.86,0,0,0-.36-.61l0,0Z"/><path class="cls-5" d="M15.84,57.47l0,0h0a.17.17,0,0,0-.15,0,.1.1,0,0,0,0,.1h0v0l0,.06a.22.22,0,0,1,0,.34.36.36,0,0,1-.29.11,2.55,2.55,0,0,1-.19-.26h0l-.74-1.17-.17.12a1.5,1.5,0,0,0,.08.5h0a2.63,2.63,0,0,0,.15.33c.2.41.59,1.08,1.06,1.07h0a.66.66,0,0,0,.57-.2.5.5,0,0,0,.15-.41.84.84,0,0,0-.37-.61l0,0Z"/><path class="cls-5" d="M25,46.67l0,0h0a.18.18,0,0,0-.16,0,.19.19,0,0,0,0,.1h0v0l0,.06a.23.23,0,0,1,0,.35.37.37,0,0,1-.3.1l-.19-.26h0l-.73-1.17-.18.13a1.59,1.59,0,0,0,.09.5h0a2,2,0,0,0,.14.32c.2.42.6,1.08,1.06,1.07h0a.72.72,0,0,0,.57-.2.48.48,0,0,0,.15-.42.84.84,0,0,0-.36-.6l0,0Z"/><path class="cls-5" d="M35.43,33.46v0h0a.12.12,0,0,0-.1,0,.05.05,0,0,0,0,0h0v0c.06,0,0,.14,0,.2a.23.23,0,0,1-.18,0L35,33.63h0l-.28-.74-.12,0a1,1,0,0,0,0,.3h0a.88.88,0,0,0,0,.2c.06.26.21.68.48.71h0a.43.43,0,0,0,.36-.07.29.29,0,0,0,.13-.23.45.45,0,0,0-.13-.38h0Z"/><path class="cls-5" d="M104.22,26.52v0h0a.16.16,0,0,0-.12-.09.16.16,0,0,0-.12,0h0l0,0c0,.12-.19.19-.36.17a.3.3,0,0,1-.25-.17,2.08,2.08,0,0,1,.18-.26h0l.91-1.09-.21-.07a2.13,2.13,0,0,0-.5.3h0a1.81,1.81,0,0,0-.28.26c-.35.34-.88.94-.65,1.27h0a.63.63,0,0,0,.49.33.78.78,0,0,0,.51-.09.88.88,0,0,0,.47-.54v0Z"/><path class="cls-5" d="M54,30.55l0,0h0a.17.17,0,0,0-.15.05.09.09,0,0,0,0,.09h0v0l0,.06a.22.22,0,0,1,0,.34.36.36,0,0,1-.29.11l-.2-.26h0l-.76-1.16-.18.13a1.93,1.93,0,0,0,.1.5h0a2,2,0,0,0,.15.32c.21.41.62,1.07,1.08,1.05h0a.67.67,0,0,0,.57-.21.48.48,0,0,0,.14-.41.84.84,0,0,0-.38-.6l0,0Z"/><path class="cls-5" d="M62.24,27.58l0,0h0a.17.17,0,0,0-.15.05.1.1,0,0,0,0,.1h0v0l0,.06a.22.22,0,0,1,0,.34.33.33,0,0,1-.29.11l-.2-.25h0l-.76-1.16-.18.12a1.77,1.77,0,0,0,.1.5h0a2,2,0,0,0,.15.32c.21.42.62,1.08,1.08,1.06h0a.7.7,0,0,0,.57-.21.5.5,0,0,0,.14-.42.88.88,0,0,0-.38-.6l0,0Z"/><path class="cls-5" d="M123.55,40l-.14.07c-.08,0-.13,0-.16,0a1.62,1.62,0,0,1-.1-.2c-.05-.13-.07-.21-.05-.22a1.75,1.75,0,0,1,.34-.11,1.1,1.1,0,0,0,.1.29C123.58,40,123.58,40,123.55,40Zm.23.77a6.45,6.45,0,0,1-.73.08.7.7,0,0,1,0,.32.43.43,0,0,1-.13.17.77.77,0,0,1-.35.17,1.34,1.34,0,0,1-.36,0,.79.79,0,0,1-.37-.14c-.09-.09-.08-.19,0-.3a1.71,1.71,0,0,1,.46-.24,2.33,2.33,0,0,1,.4-.08,1.22,1.22,0,0,1,0-.6s0,0,0,0l.22-.18h0a.75.75,0,0,0,0,.14l.09.21c0,.09.06.14,0,.15s0,0,0,0l-.14-.09a3.21,3.21,0,0,0,.08.41l.82-.06c.1,0,.15,0,.17,0s0,0,0,.05A.41.41,0,0,1,123.78,40.8Zm-1,.54h0s0-.18,0-.44l-.37.06a.63.63,0,0,0-.28.11s0,.07,0,.11a.84.84,0,0,0,.31.13A1.38,1.38,0,0,0,122.74,41.34Zm1.38-1-.14.07-.2.05-.1-.22c-.05-.1-.06-.16,0-.18l.15-.05c.1,0,.16,0,.17,0C124.09,40.16,124.14,40.28,124.12,40.3Z"/><path class="cls-5" d="M72.38,22.33a.35.35,0,0,1,0,.14c0,.07-.06.1-.09.11L72,22.52c-.16,0-.24-.07-.25-.1a2.2,2.2,0,0,1,.11-.29,2.48,2.48,0,0,0,.33.11C72.32,22.27,72.38,22.3,72.38,22.33Zm.88.32a4.15,4.15,0,0,1-.37.53,1.1,1.1,0,0,1,.31.21.64.64,0,0,1,.08.19.49.49,0,0,1-.06.33.83.83,0,0,1-.25.22.78.78,0,0,1-.35.16.23.23,0,0,1-.26-.21,1.11,1.11,0,0,1,0-.45,1.15,1.15,0,0,1,.16-.31A1.86,1.86,0,0,1,72,23s-.06,0-.06,0,0-.19,0-.25l0,0,.15.06.27.06c.11,0,.16,0,.16.06s0,0,0,0l-.17,0a4.55,4.55,0,0,0,.45.21l.43-.58c0-.08.07-.12.1-.13s0,0,0,.05A.24.24,0,0,1,73.26,22.65Zm-.11,1v0s-.16-.13-.44-.25a1.22,1.22,0,0,0-.17.28.43.43,0,0,0-.07.25s0,.06.13,0a.82.82,0,0,0,.31-.13A1.31,1.31,0,0,0,73.15,23.66ZM73,22.12a.23.23,0,0,1,0,.13.38.38,0,0,1-.08.17l-.27-.07c-.12,0-.18-.06-.19-.08a.63.63,0,0,1,0-.13c0-.09.06-.13.08-.14C72.84,22.05,73,22.09,73,22.12Z"/><path class="cls-5" d="M117,35.7a.9.9,0,0,1-.7.28,1.46,1.46,0,0,1-.78-.14.71.71,0,0,1-.38-.39.45.45,0,0,1,.1-.42,1.2,1.2,0,0,1,.54-.37l0,0s0,0,0,0,0,0,.11,0a1,1,0,0,1,.31-.07,1.79,1.79,0,0,0-.17-.29q-.09-.14-.06-.18a.27.27,0,0,1,.23-.11.93.93,0,0,1,.32.11c.1,0,.3.16.61.35a3.09,3.09,0,0,1,.43.28.32.32,0,0,1-.14.1h0l-.41-.08c-.25,0-.46-.07-.64-.08,0,0,0,.07-.07.06v-.06a1.32,1.32,0,0,0-.27,0,4.11,4.11,0,0,0,.39.24,2.94,2.94,0,0,1,.55.32C117.07,35.41,117.11,35.56,117,35.7Zm-.14,0c.09-.11,0-.24-.23-.4l-.53-.32a1.35,1.35,0,0,1-.26-.27.9.9,0,0,0-.49.3.33.33,0,0,0,0,.45,1.14,1.14,0,0,0,.31.23,1.58,1.58,0,0,0,.71.15C116.65,35.85,116.81,35.81,116.87,35.72Zm.19-1.07a8.78,8.78,0,0,0-.79-.46c-.11,0-.17-.07-.18,0v0a1.14,1.14,0,0,0,.11.19.65.65,0,0,1,.12.2A5.51,5.51,0,0,1,117.06,34.65Z"/><polygon class="cls-5" points="137.13 67.33 137.14 70.6 138.12 70.74 138.07 67.05 137.13 67.33"/><polygon class="cls-5" points="127.14 41.49 128.95 43.84 129.75 43.37 127.85 40.92 127.14 41.49"/><polygon class="cls-5" points="112.74 29.54 115.36 31.46 115.98 30.81 113.1 28.77 112.74 29.54"/><polygon class="cls-5" points="75.86 21.63 79.91 21.55 79.88 22.37 75.87 22.46 75.86 21.63"/><polygon class="cls-5" points="52.92 27.32 56.6 25.48 57.03 26.22 53.43 28.02 52.92 27.32"/><polygon class="cls-5" points="50.18 28.69 46.68 30.61 47.33 31.23 50.69 29.39 50.18 28.69"/><polygon class="cls-5" points="42.08 34.99 41.43 34.37 37.78 37.08 38.37 37.75 42.08 34.99"/><polygon class="cls-5" points="24.63 57.7 23.86 61.78 24.84 61.9 25.57 57.96 24.63 57.7"/><polygon class="cls-5" points="23.43 64.57 23.58 67.63 24.57 67.57 24.42 64.69 23.43 64.57"/></svg>